M48
; DRILL file {KiCad 9.0.6} date 2026-01-03T10:51:25+0100
; FORMAT={-:-/ absolute / metric / decimal}
; #@! TF.CreationDate,2026-01-03T10:51:25+01:00
; #@! TF.GenerationSoftware,Kicad,Pcbnew,9.0.6
; #@! TF.FileFunction,Plated,1,2,PTH
FMAT,2
METRIC
; #@! TA.AperFunction,Plated,PTH,ViaDrill
T1C0.300
; #@! TA.AperFunction,Plated,PTH,ComponentDrill
T2C1.000
; #@! TA.AperFunction,Plated,PTH,ComponentDrill
T3C1.500
%
G90
G05
T1
X150.019Y-59.531
X152.4Y-61.912
X154.781Y-90.487
X154.781Y-109.537
X159.544Y-114.3
X169.069Y-78.581
X173.831Y-90.487
X173.831Y-109.537
X178.594Y-95.25
X178.594Y-114.3
X192.881Y-90.487
X197.644Y-95.25
X197.644Y-114.3
T2
X188.012Y-64.175
X188.012Y-66.675
X188.012Y-69.175
X202.512Y-64.175
X202.512Y-69.175
T3
X153.352Y-85.725
X153.352Y-104.616
X159.702Y-83.185
X159.702Y-102.076
X172.403Y-85.725
X172.403Y-104.616
X178.752Y-83.185
X178.752Y-102.076
X191.452Y-85.725
X191.452Y-104.616
X197.802Y-83.185
X197.802Y-102.076
T3
G00X194.862Y-61.075
M15
G01X196.162Y-61.075
M16
G05
G00X194.862Y-72.275
M15
G01X196.162Y-72.275
M16
G05
M30
