%TF.GenerationSoftware,KiCad,Pcbnew,9.0.6*%
%TF.CreationDate,2026-01-03T09:42:59+01:00*%
%TF.ProjectId,Macropad,4d616372-6f70-4616-942e-6b696361645f,rev?*%
%TF.SameCoordinates,Original*%
%TF.FileFunction,Legend,Bot*%
%TF.FilePolarity,Positive*%
%FSLAX46Y46*%
G04 Gerber Fmt 4.6, Leading zero omitted, Abs format (unit mm)*
G04 Created by KiCad (PCBNEW 9.0.6) date 2026-01-03 09:42:59*
%MOMM*%
%LPD*%
G01*
G04 APERTURE LIST*
%ADD10C,0.150000*%
%ADD11C,0.120000*%
G04 APERTURE END LIST*
D10*
X157043154Y-54129819D02*
X157043154Y-54939342D01*
X157043154Y-54939342D02*
X156995535Y-55034580D01*
X156995535Y-55034580D02*
X156947916Y-55082200D01*
X156947916Y-55082200D02*
X156852678Y-55129819D01*
X156852678Y-55129819D02*
X156662202Y-55129819D01*
X156662202Y-55129819D02*
X156566964Y-55082200D01*
X156566964Y-55082200D02*
X156519345Y-55034580D01*
X156519345Y-55034580D02*
X156471726Y-54939342D01*
X156471726Y-54939342D02*
X156471726Y-54129819D01*
X155471726Y-55129819D02*
X156043154Y-55129819D01*
X155757440Y-55129819D02*
X155757440Y-54129819D01*
X155757440Y-54129819D02*
X155852678Y-54272676D01*
X155852678Y-54272676D02*
X155947916Y-54367914D01*
X155947916Y-54367914D02*
X156043154Y-54415533D01*
D11*
%TO.C,U1*%
X156681250Y-56175000D02*
X159281250Y-56175000D01*
X159281250Y-54975000D02*
X159281250Y-56175000D01*
X167281250Y-54975000D02*
X159281250Y-54975000D01*
X167281250Y-56175000D02*
X167281250Y-54975000D01*
X167281250Y-56175000D02*
X169881250Y-56175000D01*
X169981250Y-77175000D02*
X156581250Y-77175000D01*
X154477216Y-57673536D02*
G75*
G02*
X156681250Y-56174999I2139304J-776364D01*
G01*
X156581250Y-77175000D02*
G75*
G02*
X154481246Y-75675001I74110J2323760D01*
G01*
X169881718Y-56175001D02*
G75*
G02*
X172094142Y-57670320I77145J-2270232D01*
G01*
X172081250Y-75675000D02*
G75*
G02*
X169981250Y-77175000I-2174105J823747D01*
G01*
%TD*%
M02*
