%TF.GenerationSoftware,KiCad,Pcbnew,9.0.6*%
%TF.CreationDate,2026-01-03T09:42:58+01:00*%
%TF.ProjectId,Macropad,4d616372-6f70-4616-942e-6b696361645f,rev?*%
%TF.SameCoordinates,Original*%
%TF.FileFunction,Copper,L2,Bot*%
%TF.FilePolarity,Positive*%
%FSLAX46Y46*%
G04 Gerber Fmt 4.6, Leading zero omitted, Abs format (unit mm)*
G04 Created by KiCad (PCBNEW 9.0.6) date 2026-01-03 09:42:58*
%MOMM*%
%LPD*%
G01*
G04 APERTURE LIST*
G04 Aperture macros list*
%AMRoundRect*
0 Rectangle with rounded corners*
0 $1 Rounding radius*
0 $2 $3 $4 $5 $6 $7 $8 $9 X,Y pos of 4 corners*
0 Add a 4 corners polygon primitive as box body*
4,1,4,$2,$3,$4,$5,$6,$7,$8,$9,$2,$3,0*
0 Add four circle primitives for the rounded corners*
1,1,$1+$1,$2,$3*
1,1,$1+$1,$4,$5*
1,1,$1+$1,$6,$7*
1,1,$1+$1,$8,$9*
0 Add four rect primitives between the rounded corners*
20,1,$1+$1,$2,$3,$4,$5,0*
20,1,$1+$1,$4,$5,$6,$7,0*
20,1,$1+$1,$6,$7,$8,$9,0*
20,1,$1+$1,$8,$9,$2,$3,0*%
G04 Aperture macros list end*
%TA.AperFunction,Conductor*%
%ADD10C,0.500000*%
%TD*%
%TA.AperFunction,ComponentPad*%
%ADD11C,2.200000*%
%TD*%
%TA.AperFunction,ComponentPad*%
%ADD12R,2.000000X2.000000*%
%TD*%
%TA.AperFunction,ComponentPad*%
%ADD13C,2.000000*%
%TD*%
%TA.AperFunction,ComponentPad*%
%ADD14R,3.200000X2.000000*%
%TD*%
%TA.AperFunction,SMDPad,CuDef*%
%ADD15RoundRect,0.500000X1.000000X0.500000X-1.000000X0.500000X-1.000000X-0.500000X1.000000X-0.500000X0*%
%TD*%
%TA.AperFunction,HeatsinkPad*%
%ADD16RoundRect,0.250000X1.500000X1.500000X-1.500000X1.500000X-1.500000X-1.500000X1.500000X-1.500000X0*%
%TD*%
%TA.AperFunction,SMDPad,CuDef*%
%ADD17RoundRect,0.250000X0.900000X0.400000X-0.900000X0.400000X-0.900000X-0.400000X0.900000X-0.400000X0*%
%TD*%
%TA.AperFunction,SMDPad,CuDef*%
%ADD18C,1.300000*%
%TD*%
%TA.AperFunction,ViaPad*%
%ADD19C,0.600000*%
%TD*%
%TA.AperFunction,Conductor*%
%ADD20C,0.200000*%
%TD*%
G04 APERTURE END LIST*
D10*
%TO.N,GND*%
X154781250Y-61912500D02*
X152400000Y-61912500D01*
%TD*%
D11*
%TO.P,SW3,1,1*%
%TO.N,Net-(U1-GPIO3{slash}MOSI)*%
X178752500Y-83185000D03*
%TO.P,SW3,2,2*%
%TO.N,GND*%
X172402500Y-85725000D03*
%TD*%
D12*
%TO.P,SW7,A,A*%
%TO.N,Net-(U1-GPIO28{slash}ADC2{slash}A2)*%
X188012500Y-64175000D03*
D13*
%TO.P,SW7,B,B*%
%TO.N,Net-(U1-GPIO27{slash}ADC1{slash}A1)*%
X188012500Y-69175000D03*
%TO.P,SW7,C,C*%
%TO.N,GND*%
X188012500Y-66675000D03*
D14*
%TO.P,SW7,MP*%
%TO.N,N/C*%
X195512500Y-61075000D03*
X195512500Y-72275000D03*
D13*
%TO.P,SW7,S1,S1*%
%TO.N,GND*%
X202512500Y-69175000D03*
%TO.P,SW7,S2,S2*%
%TO.N,Net-(U1-GPIO26{slash}ADC0{slash}A0)*%
X202512500Y-64175000D03*
%TD*%
D11*
%TO.P,SW2,1,1*%
%TO.N,Net-(U1-GPIO2{slash}SCK)*%
X159702500Y-102076250D03*
%TO.P,SW2,2,2*%
%TO.N,GND*%
X153352500Y-104616250D03*
%TD*%
%TO.P,SW4,1,1*%
%TO.N,Net-(U1-GPIO4{slash}MISO)*%
X178752500Y-102076250D03*
%TO.P,SW4,2,2*%
%TO.N,GND*%
X172402500Y-104616250D03*
%TD*%
%TO.P,SW6,1,1*%
%TO.N,Net-(U1-GPIO7{slash}SCL)*%
X197802500Y-102076250D03*
%TO.P,SW6,2,2*%
%TO.N,GND*%
X191452500Y-104616250D03*
%TD*%
%TO.P,SW5,1,1*%
%TO.N,Net-(U1-GPIO6{slash}SDA)*%
X197802500Y-83185000D03*
%TO.P,SW5,2,2*%
%TO.N,GND*%
X191452500Y-85725000D03*
%TD*%
%TO.P,SW1,1,1*%
%TO.N,Net-(U1-GPIO1{slash}RX)*%
X159702500Y-83185000D03*
%TO.P,SW1,2,2*%
%TO.N,GND*%
X153352500Y-85725000D03*
%TD*%
D15*
%TO.P,U1,1,GPIO26/ADC0/A0*%
%TO.N,Net-(U1-GPIO26{slash}ADC0{slash}A0)*%
X171781250Y-59055000D03*
%TO.P,U1,2,GPIO27/ADC1/A1*%
%TO.N,Net-(U1-GPIO27{slash}ADC1{slash}A1)*%
X171781250Y-61595000D03*
%TO.P,U1,3,GPIO28/ADC2/A2*%
%TO.N,Net-(U1-GPIO28{slash}ADC2{slash}A2)*%
X171781250Y-64135000D03*
%TO.P,U1,4,GPIO29/ADC3/A3*%
%TO.N,unconnected-(U1-GPIO29{slash}ADC3{slash}A3-Pad4)*%
X171781250Y-66675000D03*
%TO.P,U1,5,GPIO6/SDA*%
%TO.N,Net-(U1-GPIO6{slash}SDA)*%
X171781250Y-69215000D03*
%TO.P,U1,6,GPIO7/SCL*%
%TO.N,Net-(U1-GPIO7{slash}SCL)*%
X171781250Y-71755000D03*
%TO.P,U1,7,GPIO0/TX*%
%TO.N,Net-(D1-DIN)*%
X171781250Y-74295000D03*
%TO.P,U1,8,GPIO1/RX*%
%TO.N,Net-(U1-GPIO1{slash}RX)*%
X154781250Y-74295000D03*
%TO.P,U1,9,GPIO2/SCK*%
%TO.N,Net-(U1-GPIO2{slash}SCK)*%
X154781250Y-71755000D03*
%TO.P,U1,10,GPIO4/MISO*%
%TO.N,Net-(U1-GPIO4{slash}MISO)*%
X154781250Y-69215000D03*
%TO.P,U1,11,GPIO3/MOSI*%
%TO.N,Net-(U1-GPIO3{slash}MOSI)*%
X154781250Y-66675000D03*
%TO.P,U1,12,3V3*%
%TO.N,unconnected-(U1-3V3-Pad12)*%
X154781250Y-64135000D03*
%TO.P,U1,13,GND*%
%TO.N,GND*%
X154781250Y-61595000D03*
%TO.P,U1,14,VBUS*%
%TO.N,+5V*%
X154781250Y-59055000D03*
D16*
%TO.P,U1,15*%
%TO.N,N/C*%
X161181250Y-67275000D03*
D17*
%TO.P,U1,16*%
X167781250Y-66275000D03*
%TO.P,U1,17*%
X167781250Y-64375000D03*
D18*
%TO.P,U1,18*%
X164551250Y-58055000D03*
%TO.P,U1,19*%
X164551250Y-60635000D03*
%TO.P,U1,20*%
X164551250Y-63175000D03*
%TO.P,U1,21*%
X162011250Y-63175000D03*
%TO.P,U1,22*%
X162011250Y-60635000D03*
%TO.P,U1,23*%
X162011250Y-58055000D03*
%TD*%
D19*
%TO.N,+5V*%
X150018750Y-59531250D03*
%TO.N,Net-(D1-DIN)*%
X169068750Y-78581250D03*
%TO.N,Net-(D1-DOUT)*%
X159543750Y-114300000D03*
X154781250Y-90487500D03*
%TO.N,GND*%
X152400000Y-61912500D03*
%TO.N,Net-(D2-DOUT)*%
X178593750Y-95250000D03*
X154781250Y-109537500D03*
%TO.N,Net-(D3-DOUT)*%
X178593750Y-114300000D03*
X173831250Y-90487500D03*
%TO.N,Net-(D4-DOUT)*%
X173831250Y-109537500D03*
X197643750Y-95250000D03*
%TO.N,Net-(D5-DOUT)*%
X192881250Y-90487500D03*
X197643750Y-114300000D03*
%TD*%
D10*
%TO.N,+5V*%
X150495000Y-59055000D02*
X150018750Y-59531250D01*
X154305000Y-59531250D02*
X154781250Y-59055000D01*
X154781250Y-59055000D02*
X150495000Y-59055000D01*
D20*
%TO.N,Net-(D1-DIN)*%
X169068750Y-78581250D02*
X169068750Y-77007500D01*
X169068750Y-77007500D02*
X171781250Y-74295000D01*
%TO.N,Net-(D1-DOUT)*%
X164306250Y-109537500D02*
X159543750Y-114300000D01*
X154781250Y-90487500D02*
X164306250Y-100012500D01*
X164306250Y-100012500D02*
X164306250Y-109537500D01*
D10*
%TO.N,GND*%
X154781250Y-61595000D02*
X159226250Y-61595000D01*
D20*
%TO.N,Net-(D2-DOUT)*%
X180153500Y-99191000D02*
X182955250Y-96389250D01*
X182955250Y-95416100D02*
X182789150Y-95250000D01*
X179332814Y-103477250D02*
X180153500Y-102656564D01*
X165086220Y-114901000D02*
X176509970Y-103477250D01*
X154781250Y-110387443D02*
X159294807Y-114901000D01*
X182955250Y-96389250D02*
X182955250Y-95416100D01*
X180153500Y-102656564D02*
X180153500Y-99191000D01*
X182789150Y-95250000D02*
X178593750Y-95250000D01*
X176509970Y-103477250D02*
X179332814Y-103477250D01*
X159294807Y-114901000D02*
X165086220Y-114901000D01*
X154781250Y-109537500D02*
X154781250Y-110387443D01*
%TO.N,Net-(D3-DOUT)*%
X180975000Y-92868750D02*
X176212500Y-92868750D01*
X176212500Y-92868750D02*
X173831250Y-90487500D01*
X183356250Y-109537500D02*
X183356250Y-95250000D01*
X183356250Y-95250000D02*
X180975000Y-92868750D01*
X178593750Y-114300000D02*
X183356250Y-109537500D01*
%TO.N,Net-(D4-DOUT)*%
X195580814Y-103477250D02*
X184157064Y-114901000D01*
X178344807Y-114901000D02*
X173831250Y-110387443D01*
X197643750Y-95250000D02*
X199203500Y-96809750D01*
X198382814Y-103477250D02*
X195580814Y-103477250D01*
X199203500Y-96809750D02*
X199203500Y-102656564D01*
X173831250Y-110387443D02*
X173831250Y-109537500D01*
X184157064Y-114901000D02*
X178344807Y-114901000D01*
X199203500Y-102656564D02*
X198382814Y-103477250D01*
%TO.N,Net-(D5-DOUT)*%
X197643750Y-108099816D02*
X197643750Y-114300000D01*
X199604500Y-96360807D02*
X199604500Y-106139066D01*
X193731193Y-90487500D02*
X199604500Y-96360807D01*
X192881250Y-90487500D02*
X193731193Y-90487500D01*
X199604500Y-106139066D02*
X197643750Y-108099816D01*
%TO.N,Net-(U1-GPIO1{slash}RX)*%
X159702500Y-83185000D02*
X159702500Y-79216250D01*
X159702500Y-79216250D02*
X154781250Y-74295000D01*
%TO.N,Net-(U1-GPIO2{slash}SCK)*%
X159702500Y-102076250D02*
X156845000Y-102076250D01*
X150805000Y-71755000D02*
X154781250Y-71755000D01*
X147637500Y-74922500D02*
X150805000Y-71755000D01*
X156845000Y-102076250D02*
X147637500Y-92868750D01*
X147637500Y-74922500D02*
X147637500Y-92868750D01*
%TO.N,Net-(U1-GPIO3{slash}MOSI)*%
X156312557Y-66675000D02*
X154781250Y-66675000D01*
X178752500Y-83185000D02*
X172822557Y-83185000D01*
X172822557Y-83185000D02*
X156312557Y-66675000D01*
%TO.N,Net-(U1-GPIO4{slash}MISO)*%
X173513750Y-102076250D02*
X166687500Y-95250000D01*
X166687500Y-79621250D02*
X166687500Y-95250000D01*
X154781250Y-69215000D02*
X156281250Y-69215000D01*
X178752500Y-102076250D02*
X173513750Y-102076250D01*
X156281250Y-69215000D02*
X166687500Y-79621250D01*
%TO.N,Net-(U1-GPIO6{slash}SDA)*%
X190341250Y-83185000D02*
X176371250Y-69215000D01*
X197802500Y-83185000D02*
X190341250Y-83185000D01*
X176371250Y-69215000D02*
X171781250Y-69215000D01*
%TO.N,Net-(U1-GPIO7{slash}SCL)*%
X197802500Y-102076250D02*
X190182500Y-102076250D01*
X185737500Y-97631250D02*
X185737500Y-80962500D01*
X190182500Y-102076250D02*
X185737500Y-97631250D01*
X185737500Y-80962500D02*
X176530000Y-71755000D01*
X176530000Y-71755000D02*
X171781250Y-71755000D01*
%TO.N,Net-(U1-GPIO27{slash}ADC1{slash}A1)*%
X188012500Y-69175000D02*
X180432500Y-61595000D01*
X180432500Y-61595000D02*
X171781250Y-61595000D01*
%TO.N,Net-(U1-GPIO26{slash}ADC0{slash}A0)*%
X180173750Y-59055000D02*
X171781250Y-59055000D01*
X188225000Y-59412500D02*
X180531250Y-59412500D01*
X180531250Y-59412500D02*
X180173750Y-59055000D01*
X202512500Y-64175000D02*
X192987500Y-64175000D01*
X192987500Y-64175000D02*
X188225000Y-59412500D01*
%TO.N,Net-(U1-GPIO28{slash}ADC2{slash}A2)*%
X190606250Y-71318750D02*
X188225000Y-73700000D01*
X176278750Y-64135000D02*
X171781250Y-64135000D01*
X188225000Y-73700000D02*
X185843750Y-73700000D01*
X185843750Y-73700000D02*
X176278750Y-64135000D01*
X190606250Y-66556250D02*
X190606250Y-71318750D01*
X188012500Y-64175000D02*
X188225000Y-64175000D01*
X188225000Y-64175000D02*
X190606250Y-66556250D01*
%TD*%
%TA.AperFunction,Conductor*%
%TO.N,GND*%
G36*
X156874068Y-68097060D02*
G01*
X172448923Y-83671916D01*
X172448927Y-83671919D01*
X172448930Y-83671922D01*
X172587684Y-83752032D01*
X172665065Y-83772766D01*
X172742446Y-83793500D01*
X172742447Y-83793500D01*
X172902667Y-83793500D01*
X177180071Y-83793500D01*
X177248192Y-83813502D01*
X177292337Y-83862296D01*
X177376787Y-84028038D01*
X177525605Y-84232868D01*
X177525607Y-84232870D01*
X177525609Y-84232873D01*
X177704626Y-84411890D01*
X177704629Y-84411892D01*
X177704632Y-84411895D01*
X177909462Y-84560713D01*
X178135050Y-84675656D01*
X178375842Y-84753894D01*
X178625908Y-84793500D01*
X178625911Y-84793500D01*
X178879089Y-84793500D01*
X178879092Y-84793500D01*
X179129158Y-84753894D01*
X179369950Y-84675656D01*
X179595538Y-84560713D01*
X179800368Y-84411895D01*
X179979395Y-84232868D01*
X180128213Y-84028038D01*
X180243156Y-83802450D01*
X180321394Y-83561658D01*
X180361000Y-83311592D01*
X180361000Y-83058408D01*
X180321394Y-82808342D01*
X180243156Y-82567550D01*
X180128213Y-82341962D01*
X179979395Y-82137132D01*
X179979392Y-82137129D01*
X179979390Y-82137126D01*
X179800373Y-81958109D01*
X179800370Y-81958107D01*
X179800368Y-81958105D01*
X179595538Y-81809287D01*
X179369950Y-81694344D01*
X179369947Y-81694343D01*
X179369945Y-81694342D01*
X179129163Y-81616107D01*
X179129159Y-81616106D01*
X179129158Y-81616106D01*
X178879092Y-81576500D01*
X178625908Y-81576500D01*
X178398168Y-81612570D01*
X178375836Y-81616107D01*
X178135054Y-81694342D01*
X178135048Y-81694345D01*
X177909458Y-81809289D01*
X177704629Y-81958107D01*
X177704626Y-81958109D01*
X177525609Y-82137126D01*
X177525607Y-82137129D01*
X177376789Y-82341958D01*
X177292338Y-82507703D01*
X177243590Y-82559318D01*
X177180071Y-82576500D01*
X173126796Y-82576500D01*
X173058675Y-82556498D01*
X173037701Y-82539595D01*
X169729012Y-79230906D01*
X169694986Y-79168594D01*
X169700051Y-79097779D01*
X169713336Y-79071819D01*
X169785233Y-78964218D01*
X169846180Y-78817081D01*
X169877250Y-78660880D01*
X169877250Y-78501620D01*
X169846180Y-78345419D01*
X169785233Y-78198282D01*
X169698483Y-78068451D01*
X169677270Y-78000699D01*
X169677250Y-77998451D01*
X169677250Y-77311738D01*
X169697252Y-77243617D01*
X169714150Y-77222648D01*
X171096394Y-75840403D01*
X171158706Y-75806378D01*
X171185489Y-75803499D01*
X172830785Y-75803499D01*
X172830796Y-75803499D01*
X172890918Y-75797577D01*
X172978944Y-75788909D01*
X172978945Y-75788908D01*
X172978951Y-75788908D01*
X173169054Y-75731241D01*
X173344254Y-75637595D01*
X173497818Y-75511568D01*
X173623845Y-75358004D01*
X173717491Y-75182804D01*
X173775158Y-74992701D01*
X173789750Y-74844547D01*
X173789749Y-73745454D01*
X173775158Y-73597299D01*
X173717491Y-73407196D01*
X173623845Y-73231996D01*
X173519566Y-73104932D01*
X173491813Y-73039587D01*
X173503795Y-72969609D01*
X173519564Y-72945069D01*
X173623845Y-72818004D01*
X173717491Y-72642804D01*
X173775090Y-72452922D01*
X173814006Y-72393543D01*
X173878847Y-72364627D01*
X173895665Y-72363500D01*
X176225761Y-72363500D01*
X176293882Y-72383502D01*
X176314856Y-72400405D01*
X185092095Y-81177644D01*
X185126121Y-81239956D01*
X185129000Y-81266739D01*
X185129000Y-97551140D01*
X185129000Y-97711360D01*
X185170468Y-97866123D01*
X185170469Y-97866125D01*
X185170470Y-97866127D01*
X185250575Y-98004873D01*
X185250583Y-98004883D01*
X189808865Y-102563165D01*
X189808870Y-102563169D01*
X189808872Y-102563171D01*
X189808873Y-102563172D01*
X189808875Y-102563173D01*
X189906407Y-102619483D01*
X189947627Y-102643282D01*
X190025008Y-102664016D01*
X190102389Y-102684750D01*
X190102390Y-102684750D01*
X190262610Y-102684750D01*
X195266225Y-102684750D01*
X195334346Y-102704752D01*
X195380839Y-102758408D01*
X195390943Y-102828682D01*
X195361449Y-102893262D01*
X195329225Y-102919869D01*
X195207189Y-102990326D01*
X195207179Y-102990334D01*
X193250895Y-104946618D01*
X193188583Y-104980644D01*
X193117767Y-104975579D01*
X193060932Y-104933032D01*
X193036121Y-104866512D01*
X193037351Y-104837811D01*
X193052500Y-104742168D01*
X193052500Y-104490330D01*
X193013101Y-104241576D01*
X192935280Y-104002067D01*
X192935277Y-104002061D01*
X192820940Y-103777663D01*
X192749132Y-103678827D01*
X192749131Y-103678827D01*
X192131734Y-104296224D01*
X192117141Y-104260992D01*
X192035063Y-104138153D01*
X191930597Y-104033687D01*
X191807758Y-103951609D01*
X191772525Y-103937014D01*
X192389921Y-103319618D01*
X192389921Y-103319616D01*
X192291086Y-103247809D01*
X192066688Y-103133472D01*
X192066682Y-103133469D01*
X191827171Y-103055648D01*
X191827175Y-103055648D01*
X191578420Y-103016250D01*
X191326580Y-103016250D01*
X191077826Y-103055648D01*
X190838317Y-103133469D01*
X190838311Y-103133472D01*
X190613918Y-103247806D01*
X190613911Y-103247811D01*
X190515077Y-103319615D01*
X190515077Y-103319618D01*
X191132474Y-103937015D01*
X191097242Y-103951609D01*
X190974403Y-104033687D01*
X190869937Y-104138153D01*
X190787859Y-104260992D01*
X190773265Y-104296224D01*
X190155868Y-103678827D01*
X190155865Y-103678827D01*
X190084061Y-103777661D01*
X190084056Y-103777668D01*
X189969722Y-104002061D01*
X189969719Y-104002067D01*
X189891898Y-104241576D01*
X189852500Y-104490330D01*
X189852500Y-104742169D01*
X189891898Y-104990923D01*
X189969719Y-105230432D01*
X189969722Y-105230438D01*
X190084059Y-105454836D01*
X190155866Y-105553671D01*
X190155868Y-105553671D01*
X190773264Y-104936274D01*
X190787859Y-104971508D01*
X190869937Y-105094347D01*
X190974403Y-105198813D01*
X191097242Y-105280891D01*
X191132474Y-105295484D01*
X190515076Y-105912882D01*
X190517027Y-105937665D01*
X190502430Y-106007145D01*
X190452587Y-106057704D01*
X190383323Y-106073290D01*
X190371705Y-106071999D01*
X190311994Y-106062542D01*
X190269111Y-106055750D01*
X190095889Y-106055750D01*
X189924799Y-106082848D01*
X189924796Y-106082848D01*
X189924795Y-106082849D01*
X189874996Y-106099030D01*
X189760055Y-106136377D01*
X189760053Y-106136377D01*
X189760047Y-106136380D01*
X189605711Y-106215018D01*
X189465569Y-106316837D01*
X189343087Y-106439319D01*
X189241268Y-106579461D01*
X189162630Y-106733797D01*
X189162627Y-106733803D01*
X189162627Y-106733805D01*
X189109098Y-106898549D01*
X189082000Y-107069639D01*
X189082000Y-107242861D01*
X189109098Y-107413951D01*
X189162627Y-107578695D01*
X189162628Y-107578698D01*
X189162630Y-107578702D01*
X189241268Y-107733038D01*
X189343087Y-107873180D01*
X189465569Y-107995662D01*
X189465572Y-107995664D01*
X189605712Y-108097482D01*
X189760055Y-108176123D01*
X189761752Y-108176674D01*
X189762311Y-108177056D01*
X189764627Y-108178016D01*
X189764425Y-108178502D01*
X189820357Y-108216746D01*
X189847994Y-108282142D01*
X189835889Y-108352099D01*
X189811911Y-108385602D01*
X183941920Y-114255595D01*
X183879608Y-114289621D01*
X183852825Y-114292500D01*
X179765989Y-114292500D01*
X179697868Y-114272498D01*
X179651375Y-114218842D01*
X179641271Y-114148568D01*
X179670765Y-114083988D01*
X179676894Y-114077405D01*
X183843165Y-109911134D01*
X183843171Y-109911128D01*
X183923282Y-109772373D01*
X183964750Y-109617610D01*
X183964750Y-109457390D01*
X183964750Y-109457389D01*
X183964750Y-95169889D01*
X183923282Y-95015128D01*
X183923282Y-95015127D01*
X183873659Y-94929179D01*
X183843171Y-94876372D01*
X183843168Y-94876369D01*
X183843165Y-94876365D01*
X183725489Y-94758689D01*
X183725466Y-94758668D01*
X181348633Y-92381833D01*
X181348623Y-92381825D01*
X181209877Y-92301720D01*
X181209874Y-92301719D01*
X181209873Y-92301718D01*
X181209871Y-92301717D01*
X181209870Y-92301717D01*
X181132491Y-92280984D01*
X181055111Y-92260250D01*
X181055109Y-92260250D01*
X176516738Y-92260250D01*
X176448617Y-92240248D01*
X176427643Y-92223345D01*
X174673626Y-90469327D01*
X174639600Y-90407015D01*
X174639142Y-90404814D01*
X174615855Y-90287743D01*
X174608680Y-90251669D01*
X174557509Y-90128135D01*
X174549921Y-90057547D01*
X174581700Y-89994060D01*
X174642758Y-89957832D01*
X174713709Y-89960366D01*
X174750623Y-89979956D01*
X174959502Y-90140235D01*
X174959509Y-90140240D01*
X175214980Y-90287736D01*
X175214984Y-90287737D01*
X175214993Y-90287743D01*
X175487548Y-90400639D01*
X175772507Y-90476993D01*
X175772513Y-90476993D01*
X175772514Y-90476994D01*
X175806074Y-90481412D01*
X176064994Y-90515500D01*
X176065001Y-90515500D01*
X176359999Y-90515500D01*
X176360006Y-90515500D01*
X176652493Y-90476993D01*
X176937452Y-90400639D01*
X177210007Y-90287743D01*
X177465494Y-90140238D01*
X177699542Y-89960646D01*
X177908146Y-89752042D01*
X178087738Y-89517994D01*
X178235243Y-89262507D01*
X178348139Y-88989952D01*
X178424493Y-88704993D01*
X178463000Y-88412506D01*
X178463000Y-88178389D01*
X180192000Y-88178389D01*
X180192000Y-88351611D01*
X180219098Y-88522701D01*
X180272627Y-88687445D01*
X180272628Y-88687448D01*
X180272630Y-88687452D01*
X180351268Y-88841788D01*
X180453087Y-88981930D01*
X180575569Y-89104412D01*
X180575572Y-89104414D01*
X180715712Y-89206232D01*
X180870055Y-89284873D01*
X181034799Y-89338402D01*
X181205889Y-89365500D01*
X181205892Y-89365500D01*
X181379108Y-89365500D01*
X181379111Y-89365500D01*
X181550201Y-89338402D01*
X181714945Y-89284873D01*
X181869288Y-89206232D01*
X182009428Y-89104414D01*
X182131914Y-88981928D01*
X182233732Y-88841788D01*
X182312373Y-88687445D01*
X182365902Y-88522701D01*
X182393000Y-88351611D01*
X182393000Y-88178389D01*
X182365902Y-88007299D01*
X182312373Y-87842555D01*
X182303435Y-87825014D01*
X182233731Y-87688211D01*
X182131912Y-87548069D01*
X182009430Y-87425587D01*
X181869288Y-87323768D01*
X181714952Y-87245130D01*
X181714948Y-87245128D01*
X181714945Y-87245127D01*
X181550201Y-87191598D01*
X181379111Y-87164500D01*
X181205889Y-87164500D01*
X181034799Y-87191598D01*
X181034796Y-87191598D01*
X181034795Y-87191599D01*
X180984996Y-87207780D01*
X180870055Y-87245127D01*
X180870053Y-87245127D01*
X180870047Y-87245130D01*
X180715711Y-87323768D01*
X180575569Y-87425587D01*
X180453087Y-87548069D01*
X180351268Y-87688211D01*
X180272630Y-87842547D01*
X180272627Y-87842553D01*
X180272627Y-87842555D01*
X180219098Y-88007299D01*
X180192000Y-88178389D01*
X178463000Y-88178389D01*
X178463000Y-88117494D01*
X178424493Y-87825007D01*
X178348139Y-87540048D01*
X178235243Y-87267493D01*
X178235237Y-87267484D01*
X178235236Y-87267480D01*
X178087740Y-87012009D01*
X178087735Y-87012002D01*
X177908153Y-86777966D01*
X177908134Y-86777945D01*
X177699554Y-86569365D01*
X177699533Y-86569346D01*
X177465497Y-86389764D01*
X177465490Y-86389759D01*
X177210019Y-86242263D01*
X177210011Y-86242259D01*
X177210007Y-86242257D01*
X176937452Y-86129361D01*
X176652493Y-86053007D01*
X176652491Y-86053006D01*
X176652485Y-86053005D01*
X176360008Y-86014500D01*
X176360006Y-86014500D01*
X176064994Y-86014500D01*
X176064991Y-86014500D01*
X175772514Y-86053005D01*
X175487548Y-86129361D01*
X175214991Y-86242258D01*
X175214980Y-86242263D01*
X174959509Y-86389759D01*
X174959502Y-86389764D01*
X174725466Y-86569346D01*
X174725445Y-86569365D01*
X174516865Y-86777945D01*
X174516846Y-86777966D01*
X174337264Y-87012002D01*
X174337259Y-87012009D01*
X174189763Y-87267480D01*
X174189758Y-87267491D01*
X174189757Y-87267493D01*
X174166447Y-87323768D01*
X174076861Y-87540048D01*
X174000505Y-87825014D01*
X173962000Y-88117491D01*
X173962000Y-88412508D01*
X174000505Y-88704985D01*
X174000506Y-88704991D01*
X174000507Y-88704993D01*
X174076861Y-88989952D01*
X174189757Y-89262507D01*
X174189758Y-89262508D01*
X174189763Y-89262519D01*
X174337259Y-89517990D01*
X174337263Y-89517996D01*
X174400569Y-89600497D01*
X174426170Y-89666717D01*
X174411906Y-89736266D01*
X174362304Y-89787062D01*
X174293115Y-89802978D01*
X174230607Y-89781967D01*
X174214221Y-89771018D01*
X174214218Y-89771017D01*
X174067081Y-89710070D01*
X173988980Y-89694535D01*
X173910882Y-89679000D01*
X173910880Y-89679000D01*
X173751620Y-89679000D01*
X173751617Y-89679000D01*
X173634469Y-89702302D01*
X173595419Y-89710070D01*
X173595417Y-89710071D01*
X173448282Y-89771017D01*
X173315859Y-89859498D01*
X173315853Y-89859503D01*
X173203253Y-89972103D01*
X173203248Y-89972109D01*
X173114767Y-90104532D01*
X173053821Y-90251667D01*
X173053820Y-90251670D01*
X173022750Y-90407867D01*
X173022750Y-90567132D01*
X173037357Y-90640567D01*
X173053820Y-90723331D01*
X173114767Y-90870468D01*
X173203247Y-91002889D01*
X173203248Y-91002890D01*
X173203253Y-91002896D01*
X173315853Y-91115496D01*
X173315859Y-91115501D01*
X173315861Y-91115503D01*
X173448282Y-91203983D01*
X173595419Y-91264930D01*
X173748564Y-91295392D01*
X173811473Y-91328300D01*
X173813077Y-91329876D01*
X175721168Y-93237966D01*
X175721189Y-93237989D01*
X175838865Y-93355665D01*
X175838869Y-93355668D01*
X175838872Y-93355671D01*
X175908250Y-93395726D01*
X175977627Y-93435782D01*
X176055008Y-93456516D01*
X176132389Y-93477250D01*
X176132390Y-93477250D01*
X176292610Y-93477250D01*
X180670761Y-93477250D01*
X180738882Y-93497252D01*
X180759851Y-93514149D01*
X181672108Y-94426406D01*
X181706132Y-94488717D01*
X181701068Y-94559532D01*
X181658521Y-94616368D01*
X181592001Y-94641179D01*
X181583012Y-94641500D01*
X179176548Y-94641500D01*
X179108427Y-94621498D01*
X179106590Y-94620294D01*
X178976718Y-94533517D01*
X178829581Y-94472570D01*
X178751480Y-94457035D01*
X178673382Y-94441500D01*
X178673380Y-94441500D01*
X178514120Y-94441500D01*
X178514117Y-94441500D01*
X178396969Y-94464802D01*
X178357919Y-94472570D01*
X178210782Y-94533517D01*
X178078359Y-94621998D01*
X178078353Y-94622003D01*
X177965753Y-94734603D01*
X177965748Y-94734609D01*
X177946727Y-94763077D01*
X177877267Y-94867032D01*
X177816320Y-95014169D01*
X177816129Y-95015128D01*
X177785250Y-95170367D01*
X177785250Y-95329632D01*
X177800737Y-95407491D01*
X177816320Y-95485831D01*
X177877267Y-95632968D01*
X177965747Y-95765389D01*
X177965748Y-95765390D01*
X177965753Y-95765396D01*
X178078353Y-95877996D01*
X178078359Y-95878001D01*
X178078361Y-95878003D01*
X178210782Y-95966483D01*
X178357919Y-96027430D01*
X178514120Y-96058500D01*
X178514121Y-96058500D01*
X178673379Y-96058500D01*
X178673380Y-96058500D01*
X178829581Y-96027430D01*
X178976718Y-95966483D01*
X179106547Y-95879734D01*
X179174299Y-95858520D01*
X179176548Y-95858500D01*
X182220750Y-95858500D01*
X182229575Y-95861091D01*
X182238682Y-95859782D01*
X182263107Y-95870937D01*
X182288871Y-95878502D01*
X182294895Y-95885455D01*
X182303262Y-95889276D01*
X182317776Y-95911861D01*
X182335364Y-95932158D01*
X182337688Y-95942844D01*
X182341646Y-95949002D01*
X182346750Y-95984500D01*
X182346750Y-96085010D01*
X182326748Y-96153131D01*
X182309845Y-96174105D01*
X179666583Y-98817366D01*
X179666575Y-98817376D01*
X179586467Y-98956127D01*
X179586468Y-98956128D01*
X179545000Y-99110890D01*
X179545000Y-100469530D01*
X179524998Y-100537651D01*
X179471342Y-100584144D01*
X179401068Y-100594248D01*
X179374694Y-100587013D01*
X179374658Y-100587124D01*
X179372270Y-100586348D01*
X179370786Y-100585941D01*
X179369955Y-100585596D01*
X179369950Y-100585594D01*
X179369944Y-100585592D01*
X179129163Y-100507357D01*
X179129159Y-100507356D01*
X179129158Y-100507356D01*
X178879092Y-100467750D01*
X178625908Y-100467750D01*
X178375842Y-100507356D01*
X178375836Y-100507357D01*
X178135054Y-100585592D01*
X178135048Y-100585595D01*
X177909458Y-100700539D01*
X177704629Y-100849357D01*
X177704626Y-100849359D01*
X177525609Y-101028376D01*
X177525607Y-101028379D01*
X177376789Y-101233208D01*
X177292338Y-101398953D01*
X177243590Y-101450568D01*
X177180071Y-101467750D01*
X173817989Y-101467750D01*
X173749868Y-101447748D01*
X173728894Y-101430845D01*
X167332905Y-95034856D01*
X167298879Y-94972544D01*
X167296000Y-94945761D01*
X167296000Y-88178389D01*
X170032000Y-88178389D01*
X170032000Y-88351611D01*
X170059098Y-88522701D01*
X170112627Y-88687445D01*
X170112628Y-88687448D01*
X170112630Y-88687452D01*
X170191268Y-88841788D01*
X170293087Y-88981930D01*
X170415569Y-89104412D01*
X170415572Y-89104414D01*
X170555712Y-89206232D01*
X170710055Y-89284873D01*
X170874799Y-89338402D01*
X171045889Y-89365500D01*
X171045892Y-89365500D01*
X171219108Y-89365500D01*
X171219111Y-89365500D01*
X171390201Y-89338402D01*
X171554945Y-89284873D01*
X171709288Y-89206232D01*
X171849428Y-89104414D01*
X171971914Y-88981928D01*
X172073732Y-88841788D01*
X172152373Y-88687445D01*
X172205902Y-88522701D01*
X172233000Y-88351611D01*
X172233000Y-88178389D01*
X172205902Y-88007299D01*
X172152373Y-87842555D01*
X172143435Y-87825014D01*
X172073731Y-87688211D01*
X171971912Y-87548069D01*
X171923735Y-87499892D01*
X171889709Y-87437580D01*
X171894774Y-87366765D01*
X171937321Y-87309929D01*
X172003841Y-87285118D01*
X172032541Y-87286348D01*
X172276580Y-87325000D01*
X172528420Y-87325000D01*
X172777173Y-87285601D01*
X173016682Y-87207780D01*
X173016688Y-87207777D01*
X173241085Y-87093441D01*
X173339921Y-87021632D01*
X173339921Y-87021630D01*
X172722525Y-86404234D01*
X172757758Y-86389641D01*
X172880597Y-86307563D01*
X172985063Y-86203097D01*
X173067141Y-86080258D01*
X173081734Y-86045025D01*
X173699130Y-86662421D01*
X173699132Y-86662421D01*
X173770941Y-86563585D01*
X173885277Y-86339188D01*
X173885280Y-86339182D01*
X173963101Y-86099673D01*
X174002500Y-85850919D01*
X174002500Y-85599080D01*
X173963101Y-85350326D01*
X173885280Y-85110817D01*
X173885277Y-85110811D01*
X173770940Y-84886413D01*
X173699132Y-84787577D01*
X173699130Y-84787577D01*
X173081734Y-85404973D01*
X173067141Y-85369742D01*
X172985063Y-85246903D01*
X172880597Y-85142437D01*
X172757758Y-85060359D01*
X172722525Y-85045764D01*
X173339921Y-84428368D01*
X173339921Y-84428366D01*
X173241086Y-84356559D01*
X173016688Y-84242222D01*
X173016682Y-84242219D01*
X172777171Y-84164398D01*
X172777175Y-84164398D01*
X172528420Y-84125000D01*
X172276580Y-84125000D01*
X172027826Y-84164398D01*
X171788317Y-84242219D01*
X171788311Y-84242222D01*
X171563918Y-84356556D01*
X171563911Y-84356561D01*
X171465077Y-84428365D01*
X171465077Y-84428368D01*
X172082474Y-85045765D01*
X172047242Y-85060359D01*
X171924403Y-85142437D01*
X171819937Y-85246903D01*
X171737859Y-85369742D01*
X171723265Y-85404974D01*
X171105868Y-84787577D01*
X171105865Y-84787577D01*
X171034061Y-84886411D01*
X171034056Y-84886418D01*
X170919722Y-85110811D01*
X170919719Y-85110817D01*
X170841898Y-85350326D01*
X170802500Y-85599080D01*
X170802500Y-85850919D01*
X170841898Y-86099673D01*
X170919719Y-86339182D01*
X170919722Y-86339188D01*
X171034059Y-86563586D01*
X171105866Y-86662421D01*
X171105868Y-86662421D01*
X171723264Y-86045024D01*
X171737859Y-86080258D01*
X171819937Y-86203097D01*
X171924403Y-86307563D01*
X172047242Y-86389641D01*
X172082473Y-86404234D01*
X171465076Y-87021631D01*
X171467027Y-87046415D01*
X171452430Y-87115895D01*
X171402587Y-87166454D01*
X171333323Y-87182040D01*
X171321705Y-87180749D01*
X171272065Y-87172887D01*
X171219111Y-87164500D01*
X171045889Y-87164500D01*
X170874799Y-87191598D01*
X170874796Y-87191598D01*
X170874795Y-87191599D01*
X170824996Y-87207780D01*
X170710055Y-87245127D01*
X170710053Y-87245127D01*
X170710047Y-87245130D01*
X170555711Y-87323768D01*
X170415569Y-87425587D01*
X170293087Y-87548069D01*
X170191268Y-87688211D01*
X170112630Y-87842547D01*
X170112627Y-87842553D01*
X170112627Y-87842555D01*
X170059098Y-88007299D01*
X170032000Y-88178389D01*
X167296000Y-88178389D01*
X167296000Y-79541140D01*
X167276482Y-79468299D01*
X167254532Y-79386378D01*
X167254532Y-79386377D01*
X167174422Y-79247623D01*
X167174420Y-79247621D01*
X167174416Y-79247616D01*
X156826654Y-68899854D01*
X156792628Y-68837542D01*
X156789749Y-68810759D01*
X156789749Y-68665465D01*
X156789749Y-68665454D01*
X156782903Y-68595937D01*
X156775159Y-68517305D01*
X156775158Y-68517303D01*
X156775158Y-68517299D01*
X156717491Y-68327196D01*
X156673850Y-68245550D01*
X156659379Y-68176045D01*
X156684783Y-68109749D01*
X156741996Y-68067711D01*
X156812854Y-68063278D01*
X156874068Y-68097060D01*
G37*
%TD.AperFunction*%
%TA.AperFunction,Conductor*%
G36*
X180196382Y-62223502D02*
G01*
X180217356Y-62240405D01*
X186549710Y-68572759D01*
X186583736Y-68635071D01*
X186580448Y-68700789D01*
X186541145Y-68821753D01*
X186541144Y-68821758D01*
X186541144Y-68821759D01*
X186504000Y-69056278D01*
X186504000Y-69293722D01*
X186541144Y-69528241D01*
X186541145Y-69528246D01*
X186612741Y-69748594D01*
X186614518Y-69754063D01*
X186722315Y-69965627D01*
X186861880Y-70157722D01*
X186861882Y-70157724D01*
X186861884Y-70157727D01*
X187029772Y-70325615D01*
X187029775Y-70325617D01*
X187029778Y-70325620D01*
X187221873Y-70465185D01*
X187433437Y-70572982D01*
X187659259Y-70646356D01*
X187893778Y-70683500D01*
X187893781Y-70683500D01*
X188131219Y-70683500D01*
X188131222Y-70683500D01*
X188365741Y-70646356D01*
X188591563Y-70572982D01*
X188803127Y-70465185D01*
X188995222Y-70325620D01*
X189163120Y-70157722D01*
X189302685Y-69965627D01*
X189410482Y-69754063D01*
X189483856Y-69528241D01*
X189521000Y-69293722D01*
X189521000Y-69056278D01*
X189483856Y-68821759D01*
X189410482Y-68595937D01*
X189302685Y-68384373D01*
X189163120Y-68192278D01*
X189163117Y-68192275D01*
X189163115Y-68192272D01*
X188995227Y-68024384D01*
X188995224Y-68024382D01*
X188995222Y-68024380D01*
X188932481Y-67978796D01*
X188889127Y-67922574D01*
X188887097Y-67908806D01*
X188137448Y-67159157D01*
X188205493Y-67140925D01*
X188319507Y-67075099D01*
X188412599Y-66982007D01*
X188478425Y-66867993D01*
X188496657Y-66799948D01*
X189237537Y-67540828D01*
X189237540Y-67540828D01*
X189295407Y-67461183D01*
X189295413Y-67461172D01*
X189402604Y-67250798D01*
X189475563Y-67026254D01*
X189512500Y-66793049D01*
X189512500Y-66627239D01*
X189532502Y-66559118D01*
X189586158Y-66512625D01*
X189656432Y-66502521D01*
X189721012Y-66532015D01*
X189727595Y-66538144D01*
X189960845Y-66771394D01*
X189994871Y-66833706D01*
X189997750Y-66860489D01*
X189997750Y-71014511D01*
X189977748Y-71082632D01*
X189960845Y-71103606D01*
X188009856Y-73054595D01*
X187947544Y-73088621D01*
X187920761Y-73091500D01*
X186147989Y-73091500D01*
X186079868Y-73071498D01*
X186058894Y-73054595D01*
X176652383Y-63648083D01*
X176652373Y-63648075D01*
X176513627Y-63567970D01*
X176513624Y-63567969D01*
X176513623Y-63567968D01*
X176513621Y-63567967D01*
X176513620Y-63567967D01*
X176379831Y-63532119D01*
X176379829Y-63532118D01*
X176358862Y-63526500D01*
X176358861Y-63526500D01*
X173895664Y-63526500D01*
X173827543Y-63506498D01*
X173781050Y-63452842D01*
X173775094Y-63437089D01*
X173717491Y-63247196D01*
X173623845Y-63071996D01*
X173519566Y-62944932D01*
X173491813Y-62879587D01*
X173503795Y-62809609D01*
X173519564Y-62785069D01*
X173623845Y-62658004D01*
X173717491Y-62482804D01*
X173775090Y-62292922D01*
X173814006Y-62233543D01*
X173878847Y-62204627D01*
X173895665Y-62203500D01*
X180128261Y-62203500D01*
X180196382Y-62223502D01*
G37*
%TD.AperFunction*%
%TA.AperFunction,Conductor*%
G36*
X206610371Y-56393002D02*
G01*
X206656864Y-56446658D01*
X206668250Y-56499000D01*
X206668250Y-119539750D01*
X206648248Y-119607871D01*
X206594592Y-119654364D01*
X206542250Y-119665750D01*
X145882750Y-119665750D01*
X145814629Y-119645748D01*
X145768136Y-119592092D01*
X145756750Y-119539750D01*
X145756750Y-107069639D01*
X150982000Y-107069639D01*
X150982000Y-107242861D01*
X151009098Y-107413951D01*
X151062627Y-107578695D01*
X151062628Y-107578698D01*
X151062630Y-107578702D01*
X151141268Y-107733038D01*
X151243087Y-107873180D01*
X151365569Y-107995662D01*
X151365572Y-107995664D01*
X151505712Y-108097482D01*
X151660055Y-108176123D01*
X151824799Y-108229652D01*
X151995889Y-108256750D01*
X151995892Y-108256750D01*
X152169108Y-108256750D01*
X152169111Y-108256750D01*
X152340201Y-108229652D01*
X152504945Y-108176123D01*
X152659288Y-108097482D01*
X152799428Y-107995664D01*
X152921914Y-107873178D01*
X153023732Y-107733038D01*
X153102373Y-107578695D01*
X153155902Y-107413951D01*
X153183000Y-107242861D01*
X153183000Y-107069639D01*
X153173355Y-107008741D01*
X154912000Y-107008741D01*
X154912000Y-107303758D01*
X154950505Y-107596235D01*
X154950506Y-107596241D01*
X154950507Y-107596243D01*
X155026861Y-107881202D01*
X155139757Y-108153757D01*
X155139758Y-108153758D01*
X155139763Y-108153769D01*
X155287259Y-108409240D01*
X155287264Y-108409247D01*
X155466846Y-108643283D01*
X155466865Y-108643304D01*
X155675445Y-108851884D01*
X155675466Y-108851903D01*
X155909502Y-109031485D01*
X155909509Y-109031490D01*
X156164980Y-109178986D01*
X156164984Y-109178987D01*
X156164993Y-109178993D01*
X156437548Y-109291889D01*
X156722507Y-109368243D01*
X156722513Y-109368243D01*
X156722514Y-109368244D01*
X156756074Y-109372662D01*
X157014994Y-109406750D01*
X157015001Y-109406750D01*
X157309999Y-109406750D01*
X157310006Y-109406750D01*
X157602493Y-109368243D01*
X157887452Y-109291889D01*
X158160007Y-109178993D01*
X158415494Y-109031488D01*
X158649542Y-108851896D01*
X158858146Y-108643292D01*
X159037738Y-108409244D01*
X159185243Y-108153757D01*
X159298139Y-107881202D01*
X159374493Y-107596243D01*
X159413000Y-107303756D01*
X159413000Y-107069639D01*
X161142000Y-107069639D01*
X161142000Y-107242861D01*
X161169098Y-107413951D01*
X161222627Y-107578695D01*
X161222628Y-107578698D01*
X161222630Y-107578702D01*
X161301268Y-107733038D01*
X161403087Y-107873180D01*
X161525569Y-107995662D01*
X161525572Y-107995664D01*
X161665712Y-108097482D01*
X161820055Y-108176123D01*
X161984799Y-108229652D01*
X162155889Y-108256750D01*
X162155892Y-108256750D01*
X162329108Y-108256750D01*
X162329111Y-108256750D01*
X162500201Y-108229652D01*
X162664945Y-108176123D01*
X162819288Y-108097482D01*
X162959428Y-107995664D01*
X163081914Y-107873178D01*
X163183732Y-107733038D01*
X163262373Y-107578695D01*
X163315902Y-107413951D01*
X163343000Y-107242861D01*
X163343000Y-107069639D01*
X163315902Y-106898549D01*
X163262373Y-106733805D01*
X163253435Y-106716264D01*
X163183731Y-106579461D01*
X163081912Y-106439319D01*
X162959430Y-106316837D01*
X162819288Y-106215018D01*
X162664952Y-106136380D01*
X162664948Y-106136378D01*
X162664945Y-106136377D01*
X162500201Y-106082848D01*
X162329111Y-106055750D01*
X162155889Y-106055750D01*
X161984799Y-106082848D01*
X161984796Y-106082848D01*
X161984795Y-106082849D01*
X161934996Y-106099030D01*
X161820055Y-106136377D01*
X161820053Y-106136377D01*
X161820047Y-106136380D01*
X161665711Y-106215018D01*
X161525569Y-106316837D01*
X161403087Y-106439319D01*
X161301268Y-106579461D01*
X161222630Y-106733797D01*
X161222627Y-106733803D01*
X161222627Y-106733805D01*
X161169098Y-106898549D01*
X161142000Y-107069639D01*
X159413000Y-107069639D01*
X159413000Y-107008744D01*
X159374493Y-106716257D01*
X159298139Y-106431298D01*
X159185243Y-106158743D01*
X159185237Y-106158734D01*
X159185236Y-106158730D01*
X159037740Y-105903259D01*
X159037735Y-105903252D01*
X158858153Y-105669216D01*
X158858134Y-105669195D01*
X158649554Y-105460615D01*
X158649533Y-105460596D01*
X158415497Y-105281014D01*
X158415490Y-105281009D01*
X158160019Y-105133513D01*
X158160011Y-105133509D01*
X158160007Y-105133507D01*
X157887452Y-105020611D01*
X157602493Y-104944257D01*
X157602491Y-104944256D01*
X157602485Y-104944255D01*
X157310008Y-104905750D01*
X157310006Y-104905750D01*
X157014994Y-104905750D01*
X157014991Y-104905750D01*
X156722514Y-104944255D01*
X156437548Y-105020611D01*
X156164991Y-105133508D01*
X156164980Y-105133513D01*
X155909509Y-105281009D01*
X155909502Y-105281014D01*
X155675466Y-105460596D01*
X155675445Y-105460615D01*
X155466865Y-105669195D01*
X155466846Y-105669216D01*
X155287264Y-105903252D01*
X155287259Y-105903259D01*
X155139763Y-106158730D01*
X155139758Y-106158741D01*
X155139757Y-106158743D01*
X155120587Y-106205024D01*
X155026861Y-106431298D01*
X154950505Y-106716264D01*
X154912000Y-107008741D01*
X153173355Y-107008741D01*
X153155902Y-106898549D01*
X153102373Y-106733805D01*
X153093435Y-106716264D01*
X153023731Y-106579461D01*
X152921912Y-106439319D01*
X152873735Y-106391142D01*
X152839709Y-106328830D01*
X152844774Y-106258015D01*
X152887321Y-106201179D01*
X152953841Y-106176368D01*
X152982541Y-106177598D01*
X153226580Y-106216250D01*
X153478420Y-106216250D01*
X153727173Y-106176851D01*
X153966682Y-106099030D01*
X153966688Y-106099027D01*
X154191085Y-105984691D01*
X154289921Y-105912882D01*
X154289921Y-105912880D01*
X153672525Y-105295484D01*
X153707758Y-105280891D01*
X153830597Y-105198813D01*
X153935063Y-105094347D01*
X154017141Y-104971508D01*
X154031734Y-104936275D01*
X154649130Y-105553671D01*
X154649132Y-105553671D01*
X154720941Y-105454835D01*
X154835277Y-105230438D01*
X154835280Y-105230432D01*
X154913101Y-104990923D01*
X154952500Y-104742169D01*
X154952500Y-104490330D01*
X154913101Y-104241576D01*
X154835280Y-104002067D01*
X154835277Y-104002061D01*
X154720940Y-103777663D01*
X154649132Y-103678827D01*
X154649130Y-103678827D01*
X154031734Y-104296223D01*
X154017141Y-104260992D01*
X153935063Y-104138153D01*
X153830597Y-104033687D01*
X153707758Y-103951609D01*
X153672525Y-103937014D01*
X154289921Y-103319618D01*
X154289921Y-103319616D01*
X154191086Y-103247809D01*
X153966688Y-103133472D01*
X153966682Y-103133469D01*
X153727171Y-103055648D01*
X153727175Y-103055648D01*
X153478420Y-103016250D01*
X153226580Y-103016250D01*
X152977826Y-103055648D01*
X152738317Y-103133469D01*
X152738311Y-103133472D01*
X152513918Y-103247806D01*
X152513911Y-103247811D01*
X152415077Y-103319615D01*
X152415077Y-103319618D01*
X153032474Y-103937015D01*
X152997242Y-103951609D01*
X152874403Y-104033687D01*
X152769937Y-104138153D01*
X152687859Y-104260992D01*
X152673265Y-104296224D01*
X152055868Y-103678827D01*
X152055865Y-103678827D01*
X151984061Y-103777661D01*
X151984056Y-103777668D01*
X151869722Y-104002061D01*
X151869719Y-104002067D01*
X151791898Y-104241576D01*
X151752500Y-104490330D01*
X151752500Y-104742169D01*
X151791898Y-104990923D01*
X151869719Y-105230432D01*
X151869722Y-105230438D01*
X151984059Y-105454836D01*
X152055866Y-105553671D01*
X152055868Y-105553671D01*
X152673264Y-104936274D01*
X152687859Y-104971508D01*
X152769937Y-105094347D01*
X152874403Y-105198813D01*
X152997242Y-105280891D01*
X153032473Y-105295484D01*
X152415076Y-105912881D01*
X152417027Y-105937665D01*
X152402430Y-106007145D01*
X152352587Y-106057704D01*
X152283323Y-106073290D01*
X152271705Y-106071999D01*
X152211994Y-106062542D01*
X152169111Y-106055750D01*
X151995889Y-106055750D01*
X151824799Y-106082848D01*
X151824796Y-106082848D01*
X151824795Y-106082849D01*
X151774996Y-106099030D01*
X151660055Y-106136377D01*
X151660053Y-106136377D01*
X151660047Y-106136380D01*
X151505711Y-106215018D01*
X151365569Y-106316837D01*
X151243087Y-106439319D01*
X151141268Y-106579461D01*
X151062630Y-106733797D01*
X151062627Y-106733803D01*
X151062627Y-106733805D01*
X151009098Y-106898549D01*
X150982000Y-107069639D01*
X145756750Y-107069639D01*
X145756750Y-74842389D01*
X147029000Y-74842389D01*
X147029000Y-92788639D01*
X147029000Y-92788640D01*
X147029000Y-92948860D01*
X147070468Y-93103623D01*
X147070469Y-93103625D01*
X147070470Y-93103627D01*
X147150575Y-93242373D01*
X147150583Y-93242383D01*
X151774321Y-97866120D01*
X156358078Y-102449877D01*
X156358079Y-102449878D01*
X156471372Y-102563171D01*
X156471373Y-102563172D01*
X156471375Y-102563173D01*
X156568904Y-102619481D01*
X156610128Y-102643282D01*
X156764889Y-102684750D01*
X156925110Y-102684750D01*
X158130071Y-102684750D01*
X158198192Y-102704752D01*
X158242337Y-102753546D01*
X158326787Y-102919288D01*
X158475605Y-103124118D01*
X158475607Y-103124120D01*
X158475609Y-103124123D01*
X158654626Y-103303140D01*
X158654629Y-103303142D01*
X158654632Y-103303145D01*
X158859462Y-103451963D01*
X159085050Y-103566906D01*
X159325842Y-103645144D01*
X159575908Y-103684750D01*
X159575911Y-103684750D01*
X159829089Y-103684750D01*
X159829092Y-103684750D01*
X160079158Y-103645144D01*
X160319950Y-103566906D01*
X160545538Y-103451963D01*
X160750368Y-103303145D01*
X160929395Y-103124118D01*
X161078213Y-102919288D01*
X161193156Y-102693700D01*
X161271394Y-102452908D01*
X161311000Y-102202842D01*
X161311000Y-101949658D01*
X161271394Y-101699592D01*
X161193156Y-101458800D01*
X161078213Y-101233212D01*
X160929395Y-101028382D01*
X160929392Y-101028379D01*
X160929390Y-101028376D01*
X160750373Y-100849359D01*
X160750370Y-100849357D01*
X160750368Y-100849355D01*
X160545538Y-100700537D01*
X160319950Y-100585594D01*
X160319947Y-100585593D01*
X160319945Y-100585592D01*
X160079163Y-100507357D01*
X160079159Y-100507356D01*
X160079158Y-100507356D01*
X159829092Y-100467750D01*
X159575908Y-100467750D01*
X159325842Y-100507356D01*
X159325836Y-100507357D01*
X159085054Y-100585592D01*
X159085048Y-100585595D01*
X158859458Y-100700539D01*
X158654629Y-100849357D01*
X158654626Y-100849359D01*
X158475609Y-101028376D01*
X158475607Y-101028379D01*
X158326789Y-101233208D01*
X158242338Y-101398953D01*
X158193590Y-101450568D01*
X158130071Y-101467750D01*
X157149239Y-101467750D01*
X157081118Y-101447748D01*
X157060144Y-101430845D01*
X148282905Y-92653606D01*
X148248879Y-92591294D01*
X148246000Y-92564511D01*
X148246000Y-88178389D01*
X150982000Y-88178389D01*
X150982000Y-88351611D01*
X151009098Y-88522701D01*
X151062627Y-88687445D01*
X151062628Y-88687448D01*
X151062630Y-88687452D01*
X151141268Y-88841788D01*
X151243087Y-88981930D01*
X151365569Y-89104412D01*
X151365572Y-89104414D01*
X151505712Y-89206232D01*
X151660055Y-89284873D01*
X151824799Y-89338402D01*
X151995889Y-89365500D01*
X151995892Y-89365500D01*
X152169108Y-89365500D01*
X152169111Y-89365500D01*
X152340201Y-89338402D01*
X152504945Y-89284873D01*
X152659288Y-89206232D01*
X152799428Y-89104414D01*
X152921914Y-88981928D01*
X153023732Y-88841788D01*
X153102373Y-88687445D01*
X153155902Y-88522701D01*
X153183000Y-88351611D01*
X153183000Y-88178389D01*
X153155902Y-88007299D01*
X153102373Y-87842555D01*
X153093435Y-87825014D01*
X153023731Y-87688211D01*
X152921912Y-87548069D01*
X152873735Y-87499892D01*
X152839709Y-87437580D01*
X152844774Y-87366765D01*
X152887321Y-87309929D01*
X152953841Y-87285118D01*
X152982541Y-87286348D01*
X153226580Y-87325000D01*
X153478420Y-87325000D01*
X153727173Y-87285601D01*
X153966682Y-87207780D01*
X153966688Y-87207777D01*
X154191085Y-87093441D01*
X154289921Y-87021632D01*
X154289921Y-87021630D01*
X153672525Y-86404234D01*
X153707758Y-86389641D01*
X153830597Y-86307563D01*
X153935063Y-86203097D01*
X154017141Y-86080258D01*
X154031734Y-86045025D01*
X154649130Y-86662421D01*
X154649132Y-86662421D01*
X154720941Y-86563585D01*
X154835277Y-86339188D01*
X154835280Y-86339182D01*
X154913101Y-86099673D01*
X154952500Y-85850919D01*
X154952500Y-85599080D01*
X154913101Y-85350326D01*
X154835280Y-85110817D01*
X154835277Y-85110811D01*
X154720940Y-84886413D01*
X154649132Y-84787577D01*
X154649130Y-84787577D01*
X154031734Y-85404973D01*
X154017141Y-85369742D01*
X153935063Y-85246903D01*
X153830597Y-85142437D01*
X153707758Y-85060359D01*
X153672525Y-85045764D01*
X154289921Y-84428368D01*
X154289921Y-84428366D01*
X154191086Y-84356559D01*
X153966688Y-84242222D01*
X153966682Y-84242219D01*
X153727171Y-84164398D01*
X153727175Y-84164398D01*
X153478420Y-84125000D01*
X153226580Y-84125000D01*
X152977826Y-84164398D01*
X152738317Y-84242219D01*
X152738311Y-84242222D01*
X152513918Y-84356556D01*
X152513911Y-84356561D01*
X152415077Y-84428365D01*
X152415077Y-84428368D01*
X153032474Y-85045765D01*
X152997242Y-85060359D01*
X152874403Y-85142437D01*
X152769937Y-85246903D01*
X152687859Y-85369742D01*
X152673265Y-85404974D01*
X152055868Y-84787577D01*
X152055865Y-84787577D01*
X151984061Y-84886411D01*
X151984056Y-84886418D01*
X151869722Y-85110811D01*
X151869719Y-85110817D01*
X151791898Y-85350326D01*
X151752500Y-85599080D01*
X151752500Y-85850919D01*
X151791898Y-86099673D01*
X151869719Y-86339182D01*
X151869722Y-86339188D01*
X151984059Y-86563586D01*
X152055866Y-86662421D01*
X152055868Y-86662421D01*
X152673264Y-86045024D01*
X152687859Y-86080258D01*
X152769937Y-86203097D01*
X152874403Y-86307563D01*
X152997242Y-86389641D01*
X153032473Y-86404234D01*
X152415076Y-87021631D01*
X152417027Y-87046415D01*
X152402430Y-87115895D01*
X152352587Y-87166454D01*
X152283323Y-87182040D01*
X152271705Y-87180749D01*
X152222065Y-87172887D01*
X152169111Y-87164500D01*
X151995889Y-87164500D01*
X151824799Y-87191598D01*
X151824796Y-87191598D01*
X151824795Y-87191599D01*
X151774996Y-87207780D01*
X151660055Y-87245127D01*
X151660053Y-87245127D01*
X151660047Y-87245130D01*
X151505711Y-87323768D01*
X151365569Y-87425587D01*
X151243087Y-87548069D01*
X151141268Y-87688211D01*
X151062630Y-87842547D01*
X151062627Y-87842553D01*
X151062627Y-87842555D01*
X151009098Y-88007299D01*
X150982000Y-88178389D01*
X148246000Y-88178389D01*
X148246000Y-75226739D01*
X148266002Y-75158618D01*
X148282905Y-75137644D01*
X151020144Y-72400405D01*
X151082456Y-72366379D01*
X151109239Y-72363500D01*
X152666836Y-72363500D01*
X152734957Y-72383502D01*
X152781450Y-72437158D01*
X152787405Y-72452910D01*
X152845009Y-72642804D01*
X152938655Y-72818004D01*
X153042932Y-72945066D01*
X153070686Y-73010414D01*
X153058704Y-73080392D01*
X153042932Y-73104934D01*
X152938655Y-73231995D01*
X152845009Y-73407195D01*
X152787340Y-73597305D01*
X152772750Y-73745446D01*
X152772750Y-74844534D01*
X152772751Y-74844554D01*
X152787340Y-74992694D01*
X152787341Y-74992700D01*
X152787342Y-74992701D01*
X152845009Y-75182804D01*
X152938655Y-75358004D01*
X153064682Y-75511568D01*
X153218246Y-75637595D01*
X153393446Y-75731241D01*
X153583549Y-75788908D01*
X153583553Y-75788908D01*
X153583555Y-75788909D01*
X153623752Y-75792867D01*
X153731703Y-75803500D01*
X155377010Y-75803499D01*
X155445131Y-75823501D01*
X155466105Y-75840404D01*
X159057095Y-79431394D01*
X159091121Y-79493706D01*
X159094000Y-79520489D01*
X159094000Y-81612570D01*
X159073998Y-81680691D01*
X159025203Y-81724836D01*
X158859464Y-81809285D01*
X158859463Y-81809285D01*
X158654629Y-81958107D01*
X158654626Y-81958109D01*
X158475609Y-82137126D01*
X158475607Y-82137129D01*
X158326789Y-82341958D01*
X158211845Y-82567548D01*
X158211842Y-82567554D01*
X158133607Y-82808336D01*
X158133606Y-82808341D01*
X158133606Y-82808342D01*
X158094000Y-83058408D01*
X158094000Y-83311592D01*
X158133126Y-83558627D01*
X158133607Y-83561663D01*
X158208936Y-83793500D01*
X158211844Y-83802450D01*
X158326787Y-84028038D01*
X158475605Y-84232868D01*
X158475607Y-84232870D01*
X158475609Y-84232873D01*
X158654626Y-84411890D01*
X158654629Y-84411892D01*
X158654632Y-84411895D01*
X158859462Y-84560713D01*
X159085050Y-84675656D01*
X159325842Y-84753894D01*
X159575908Y-84793500D01*
X159575911Y-84793500D01*
X159829089Y-84793500D01*
X159829092Y-84793500D01*
X160079158Y-84753894D01*
X160319950Y-84675656D01*
X160545538Y-84560713D01*
X160750368Y-84411895D01*
X160929395Y-84232868D01*
X161078213Y-84028038D01*
X161193156Y-83802450D01*
X161271394Y-83561658D01*
X161311000Y-83311592D01*
X161311000Y-83058408D01*
X161271394Y-82808342D01*
X161193156Y-82567550D01*
X161078213Y-82341962D01*
X160929395Y-82137132D01*
X160929392Y-82137129D01*
X160929390Y-82137126D01*
X160750373Y-81958109D01*
X160750370Y-81958107D01*
X160750368Y-81958105D01*
X160647953Y-81883696D01*
X160545536Y-81809285D01*
X160379797Y-81724836D01*
X160328182Y-81676088D01*
X160311000Y-81612570D01*
X160311000Y-79136140D01*
X160300416Y-79096639D01*
X160269532Y-78981378D01*
X160189421Y-78842622D01*
X160076128Y-78729329D01*
X156718121Y-75371322D01*
X156684096Y-75309011D01*
X156689161Y-75238196D01*
X156696096Y-75222831D01*
X156717490Y-75182806D01*
X156717490Y-75182805D01*
X156717491Y-75182804D01*
X156775158Y-74992701D01*
X156789750Y-74844547D01*
X156789749Y-73745454D01*
X156775158Y-73597299D01*
X156717491Y-73407196D01*
X156623845Y-73231996D01*
X156519566Y-73104932D01*
X156491813Y-73039587D01*
X156503795Y-72969609D01*
X156519564Y-72945069D01*
X156623845Y-72818004D01*
X156717491Y-72642804D01*
X156775158Y-72452701D01*
X156789750Y-72304547D01*
X156789749Y-71205454D01*
X156785844Y-71165799D01*
X156775159Y-71057305D01*
X156775158Y-71057303D01*
X156775158Y-71057299D01*
X156717491Y-70867196D01*
X156709800Y-70852807D01*
X156695328Y-70783301D01*
X156720732Y-70717005D01*
X156777945Y-70674967D01*
X156848803Y-70670534D01*
X156910017Y-70704316D01*
X166042095Y-79836394D01*
X166076121Y-79898706D01*
X166079000Y-79925489D01*
X166079000Y-95330111D01*
X166099734Y-95407491D01*
X166120467Y-95484870D01*
X166120470Y-95484877D01*
X166200575Y-95623623D01*
X166200583Y-95623633D01*
X173140115Y-102563165D01*
X173140120Y-102563169D01*
X173140122Y-102563171D01*
X173140123Y-102563172D01*
X173140125Y-102563173D01*
X173237657Y-102619483D01*
X173278877Y-102643282D01*
X173356258Y-102664016D01*
X173433639Y-102684750D01*
X173433640Y-102684750D01*
X173593860Y-102684750D01*
X176195381Y-102684750D01*
X176263502Y-102704752D01*
X176309995Y-102758408D01*
X176320099Y-102828682D01*
X176290605Y-102893262D01*
X176258381Y-102919869D01*
X176136345Y-102990326D01*
X176136339Y-102990331D01*
X174204818Y-104921851D01*
X174142506Y-104955876D01*
X174071690Y-104950811D01*
X174014855Y-104908264D01*
X173990044Y-104841744D01*
X173991274Y-104813043D01*
X174002500Y-104742168D01*
X174002500Y-104490330D01*
X173963101Y-104241576D01*
X173885280Y-104002067D01*
X173885277Y-104002061D01*
X173770940Y-103777663D01*
X173699132Y-103678827D01*
X173699131Y-103678827D01*
X173081734Y-104296224D01*
X173067141Y-104260992D01*
X172985063Y-104138153D01*
X172880597Y-104033687D01*
X172757758Y-103951609D01*
X172722525Y-103937014D01*
X173339921Y-103319618D01*
X173339921Y-103319616D01*
X173241086Y-103247809D01*
X173016688Y-103133472D01*
X173016682Y-103133469D01*
X172777171Y-103055648D01*
X172777175Y-103055648D01*
X172528420Y-103016250D01*
X172276580Y-103016250D01*
X172027826Y-103055648D01*
X171788317Y-103133469D01*
X171788311Y-103133472D01*
X171563918Y-103247806D01*
X171563911Y-103247811D01*
X171465077Y-103319615D01*
X171465077Y-103319618D01*
X172082474Y-103937015D01*
X172047242Y-103951609D01*
X171924403Y-104033687D01*
X171819937Y-104138153D01*
X171737859Y-104260992D01*
X171723265Y-104296224D01*
X171105868Y-103678827D01*
X171105865Y-103678827D01*
X171034061Y-103777661D01*
X171034056Y-103777668D01*
X170919722Y-104002061D01*
X170919719Y-104002067D01*
X170841898Y-104241576D01*
X170802500Y-104490330D01*
X170802500Y-104742169D01*
X170841898Y-104990923D01*
X170919719Y-105230432D01*
X170919722Y-105230438D01*
X171034059Y-105454836D01*
X171105866Y-105553671D01*
X171105868Y-105553671D01*
X171723264Y-104936274D01*
X171737859Y-104971508D01*
X171819937Y-105094347D01*
X171924403Y-105198813D01*
X172047242Y-105280891D01*
X172082474Y-105295484D01*
X171465076Y-105912882D01*
X171467027Y-105937665D01*
X171452430Y-106007145D01*
X171402587Y-106057704D01*
X171333323Y-106073290D01*
X171321705Y-106071999D01*
X171261994Y-106062542D01*
X171219111Y-106055750D01*
X171045889Y-106055750D01*
X170874799Y-106082848D01*
X170874796Y-106082848D01*
X170874795Y-106082849D01*
X170824996Y-106099030D01*
X170710055Y-106136377D01*
X170710053Y-106136377D01*
X170710047Y-106136380D01*
X170555711Y-106215018D01*
X170415569Y-106316837D01*
X170293087Y-106439319D01*
X170191268Y-106579461D01*
X170112630Y-106733797D01*
X170112627Y-106733803D01*
X170112627Y-106733805D01*
X170059098Y-106898549D01*
X170032000Y-107069639D01*
X170032000Y-107242861D01*
X170059098Y-107413951D01*
X170112627Y-107578695D01*
X170112628Y-107578698D01*
X170112630Y-107578702D01*
X170191268Y-107733038D01*
X170293087Y-107873180D01*
X170415569Y-107995662D01*
X170415572Y-107995664D01*
X170555712Y-108097482D01*
X170710047Y-108176119D01*
X170714465Y-108178370D01*
X170713383Y-108180492D01*
X170761048Y-108218767D01*
X170783585Y-108286092D01*
X170766145Y-108354913D01*
X170746768Y-108379901D01*
X164871076Y-114255595D01*
X164808764Y-114289621D01*
X164781981Y-114292500D01*
X160715989Y-114292500D01*
X160647868Y-114272498D01*
X160601375Y-114218842D01*
X160591271Y-114148568D01*
X160620765Y-114083988D01*
X160626894Y-114077405D01*
X164793165Y-109911134D01*
X164793171Y-109911128D01*
X164873282Y-109772373D01*
X164914750Y-109617610D01*
X164914750Y-109457390D01*
X164914750Y-109457389D01*
X164914750Y-99932389D01*
X164873282Y-99777628D01*
X164873282Y-99777627D01*
X164793171Y-99638872D01*
X164793169Y-99638870D01*
X164793165Y-99638865D01*
X155623626Y-90469327D01*
X155589600Y-90407015D01*
X155589142Y-90404814D01*
X155565855Y-90287743D01*
X155558680Y-90251669D01*
X155507509Y-90128135D01*
X155499921Y-90057547D01*
X155531700Y-89994060D01*
X155592758Y-89957832D01*
X155663709Y-89960366D01*
X155700623Y-89979956D01*
X155909502Y-90140235D01*
X155909509Y-90140240D01*
X156164980Y-90287736D01*
X156164984Y-90287737D01*
X156164993Y-90287743D01*
X156437548Y-90400639D01*
X156722507Y-90476993D01*
X156722513Y-90476993D01*
X156722514Y-90476994D01*
X156756074Y-90481412D01*
X157014994Y-90515500D01*
X157015001Y-90515500D01*
X157309999Y-90515500D01*
X157310006Y-90515500D01*
X157602493Y-90476993D01*
X157887452Y-90400639D01*
X158160007Y-90287743D01*
X158415494Y-90140238D01*
X158649542Y-89960646D01*
X158858146Y-89752042D01*
X159037738Y-89517994D01*
X159185243Y-89262507D01*
X159298139Y-88989952D01*
X159374493Y-88704993D01*
X159413000Y-88412506D01*
X159413000Y-88178389D01*
X161142000Y-88178389D01*
X161142000Y-88351611D01*
X161169098Y-88522701D01*
X161222627Y-88687445D01*
X161222628Y-88687448D01*
X161222630Y-88687452D01*
X161301268Y-88841788D01*
X161403087Y-88981930D01*
X161525569Y-89104412D01*
X161525572Y-89104414D01*
X161665712Y-89206232D01*
X161820055Y-89284873D01*
X161984799Y-89338402D01*
X162155889Y-89365500D01*
X162155892Y-89365500D01*
X162329108Y-89365500D01*
X162329111Y-89365500D01*
X162500201Y-89338402D01*
X162664945Y-89284873D01*
X162819288Y-89206232D01*
X162959428Y-89104414D01*
X163081914Y-88981928D01*
X163183732Y-88841788D01*
X163262373Y-88687445D01*
X163315902Y-88522701D01*
X163343000Y-88351611D01*
X163343000Y-88178389D01*
X163315902Y-88007299D01*
X163262373Y-87842555D01*
X163253435Y-87825014D01*
X163183731Y-87688211D01*
X163081912Y-87548069D01*
X162959430Y-87425587D01*
X162819288Y-87323768D01*
X162664952Y-87245130D01*
X162664948Y-87245128D01*
X162664945Y-87245127D01*
X162500201Y-87191598D01*
X162329111Y-87164500D01*
X162155889Y-87164500D01*
X161984799Y-87191598D01*
X161984796Y-87191598D01*
X161984795Y-87191599D01*
X161934996Y-87207780D01*
X161820055Y-87245127D01*
X161820053Y-87245127D01*
X161820047Y-87245130D01*
X161665711Y-87323768D01*
X161525569Y-87425587D01*
X161403087Y-87548069D01*
X161301268Y-87688211D01*
X161222630Y-87842547D01*
X161222627Y-87842553D01*
X161222627Y-87842555D01*
X161169098Y-88007299D01*
X161142000Y-88178389D01*
X159413000Y-88178389D01*
X159413000Y-88117494D01*
X159374493Y-87825007D01*
X159298139Y-87540048D01*
X159185243Y-87267493D01*
X159185237Y-87267484D01*
X159185236Y-87267480D01*
X159037740Y-87012009D01*
X159037735Y-87012002D01*
X158858153Y-86777966D01*
X158858134Y-86777945D01*
X158649554Y-86569365D01*
X158649533Y-86569346D01*
X158415497Y-86389764D01*
X158415490Y-86389759D01*
X158160019Y-86242263D01*
X158160011Y-86242259D01*
X158160007Y-86242257D01*
X157887452Y-86129361D01*
X157602493Y-86053007D01*
X157602491Y-86053006D01*
X157602485Y-86053005D01*
X157310008Y-86014500D01*
X157310006Y-86014500D01*
X157014994Y-86014500D01*
X157014991Y-86014500D01*
X156722514Y-86053005D01*
X156437548Y-86129361D01*
X156164991Y-86242258D01*
X156164980Y-86242263D01*
X155909509Y-86389759D01*
X155909502Y-86389764D01*
X155675466Y-86569346D01*
X155675445Y-86569365D01*
X155466865Y-86777945D01*
X155466846Y-86777966D01*
X155287264Y-87012002D01*
X155287259Y-87012009D01*
X155139763Y-87267480D01*
X155139758Y-87267491D01*
X155139757Y-87267493D01*
X155116447Y-87323768D01*
X155026861Y-87540048D01*
X154950505Y-87825014D01*
X154912000Y-88117491D01*
X154912000Y-88412508D01*
X154950505Y-88704985D01*
X154950506Y-88704991D01*
X154950507Y-88704993D01*
X155026861Y-88989952D01*
X155139757Y-89262507D01*
X155139758Y-89262508D01*
X155139763Y-89262519D01*
X155287259Y-89517990D01*
X155287263Y-89517996D01*
X155350569Y-89600497D01*
X155376170Y-89666717D01*
X155361906Y-89736266D01*
X155312304Y-89787062D01*
X155243115Y-89802978D01*
X155180607Y-89781967D01*
X155164221Y-89771018D01*
X155164218Y-89771017D01*
X155017081Y-89710070D01*
X154938980Y-89694535D01*
X154860882Y-89679000D01*
X154860880Y-89679000D01*
X154701620Y-89679000D01*
X154701617Y-89679000D01*
X154584469Y-89702302D01*
X154545419Y-89710070D01*
X154545417Y-89710071D01*
X154398282Y-89771017D01*
X154265859Y-89859498D01*
X154265853Y-89859503D01*
X154153253Y-89972103D01*
X154153248Y-89972109D01*
X154064767Y-90104532D01*
X154003821Y-90251667D01*
X154003820Y-90251670D01*
X153972750Y-90407867D01*
X153972750Y-90567132D01*
X153987357Y-90640567D01*
X154003820Y-90723331D01*
X154064767Y-90870468D01*
X154153247Y-91002889D01*
X154153248Y-91002890D01*
X154153253Y-91002896D01*
X154265853Y-91115496D01*
X154265859Y-91115501D01*
X154265861Y-91115503D01*
X154398282Y-91203983D01*
X154545419Y-91264930D01*
X154698564Y-91295392D01*
X154761473Y-91328300D01*
X154763077Y-91329876D01*
X163660845Y-100227644D01*
X163694871Y-100289956D01*
X163697750Y-100316739D01*
X163697750Y-109233261D01*
X163677748Y-109301382D01*
X163660845Y-109322356D01*
X159525577Y-113457623D01*
X159463265Y-113491649D01*
X159461064Y-113492107D01*
X159336415Y-113516901D01*
X159307919Y-113522570D01*
X159307917Y-113522571D01*
X159160783Y-113583516D01*
X159160782Y-113583517D01*
X159053187Y-113655408D01*
X158985436Y-113676622D01*
X158916970Y-113657839D01*
X158894093Y-113639737D01*
X155441512Y-110187156D01*
X155407486Y-110124844D01*
X155412551Y-110054029D01*
X155425836Y-110028069D01*
X155497733Y-109920468D01*
X155558680Y-109773331D01*
X155589750Y-109617130D01*
X155589750Y-109457870D01*
X155558680Y-109301669D01*
X155497733Y-109154532D01*
X155409253Y-109022111D01*
X155409251Y-109022109D01*
X155409246Y-109022103D01*
X155296646Y-108909503D01*
X155296640Y-108909498D01*
X155296639Y-108909497D01*
X155164218Y-108821017D01*
X155017081Y-108760070D01*
X154938980Y-108744535D01*
X154860882Y-108729000D01*
X154860880Y-108729000D01*
X154701620Y-108729000D01*
X154701617Y-108729000D01*
X154584469Y-108752302D01*
X154545419Y-108760070D01*
X154545417Y-108760071D01*
X154398282Y-108821017D01*
X154265859Y-108909498D01*
X154265853Y-108909503D01*
X154153253Y-109022103D01*
X154153248Y-109022109D01*
X154146980Y-109031490D01*
X154064767Y-109154532D01*
X154007872Y-109291888D01*
X154003821Y-109301667D01*
X154003820Y-109301670D01*
X153972750Y-109457867D01*
X153972750Y-109457870D01*
X153972750Y-109617130D01*
X154003820Y-109773331D01*
X154064767Y-109920468D01*
X154151515Y-110050297D01*
X154172730Y-110118049D01*
X154172750Y-110120298D01*
X154172750Y-110307333D01*
X154172750Y-110467553D01*
X154214218Y-110622316D01*
X154214219Y-110622318D01*
X154214220Y-110622320D01*
X154294325Y-110761066D01*
X154294333Y-110761076D01*
X158921173Y-115387916D01*
X158921178Y-115387920D01*
X158921180Y-115387922D01*
X159059935Y-115468032D01*
X159214696Y-115509500D01*
X159214697Y-115509500D01*
X159214698Y-115509500D01*
X165166330Y-115509500D01*
X165166331Y-115509500D01*
X165243711Y-115488766D01*
X165321093Y-115468032D01*
X165459847Y-115387922D01*
X173746905Y-107100862D01*
X173809217Y-107066837D01*
X173880032Y-107071902D01*
X173936868Y-107114449D01*
X173961679Y-107180969D01*
X173962000Y-107189958D01*
X173962000Y-107303758D01*
X174000505Y-107596235D01*
X174000506Y-107596241D01*
X174000507Y-107596243D01*
X174076861Y-107881202D01*
X174189757Y-108153757D01*
X174189758Y-108153758D01*
X174189763Y-108153769D01*
X174337259Y-108409240D01*
X174337264Y-108409247D01*
X174516846Y-108643283D01*
X174516865Y-108643304D01*
X174725445Y-108851884D01*
X174725466Y-108851903D01*
X174959502Y-109031485D01*
X174959509Y-109031490D01*
X175214980Y-109178986D01*
X175214984Y-109178987D01*
X175214993Y-109178993D01*
X175487548Y-109291889D01*
X175772507Y-109368243D01*
X175772513Y-109368243D01*
X175772514Y-109368244D01*
X175806074Y-109372662D01*
X176064994Y-109406750D01*
X176065001Y-109406750D01*
X176359999Y-109406750D01*
X176360006Y-109406750D01*
X176652493Y-109368243D01*
X176937452Y-109291889D01*
X177210007Y-109178993D01*
X177465494Y-109031488D01*
X177699542Y-108851896D01*
X177908146Y-108643292D01*
X178087738Y-108409244D01*
X178235243Y-108153757D01*
X178348139Y-107881202D01*
X178424493Y-107596243D01*
X178463000Y-107303756D01*
X178463000Y-107069639D01*
X180192000Y-107069639D01*
X180192000Y-107242861D01*
X180219098Y-107413951D01*
X180272627Y-107578695D01*
X180272628Y-107578698D01*
X180272630Y-107578702D01*
X180351268Y-107733038D01*
X180453087Y-107873180D01*
X180575569Y-107995662D01*
X180575572Y-107995664D01*
X180715712Y-108097482D01*
X180870055Y-108176123D01*
X181034799Y-108229652D01*
X181205889Y-108256750D01*
X181205892Y-108256750D01*
X181379108Y-108256750D01*
X181379111Y-108256750D01*
X181550201Y-108229652D01*
X181714945Y-108176123D01*
X181869288Y-108097482D01*
X182009428Y-107995664D01*
X182131914Y-107873178D01*
X182233732Y-107733038D01*
X182312373Y-107578695D01*
X182365902Y-107413951D01*
X182393000Y-107242861D01*
X182393000Y-107069639D01*
X182365902Y-106898549D01*
X182312373Y-106733805D01*
X182303435Y-106716264D01*
X182233731Y-106579461D01*
X182131912Y-106439319D01*
X182009430Y-106316837D01*
X181869288Y-106215018D01*
X181714952Y-106136380D01*
X181714948Y-106136378D01*
X181714945Y-106136377D01*
X181550201Y-106082848D01*
X181379111Y-106055750D01*
X181205889Y-106055750D01*
X181034799Y-106082848D01*
X181034796Y-106082848D01*
X181034795Y-106082849D01*
X180984996Y-106099030D01*
X180870055Y-106136377D01*
X180870053Y-106136377D01*
X180870047Y-106136380D01*
X180715711Y-106215018D01*
X180575569Y-106316837D01*
X180453087Y-106439319D01*
X180351268Y-106579461D01*
X180272630Y-106733797D01*
X180272627Y-106733803D01*
X180272627Y-106733805D01*
X180219098Y-106898549D01*
X180192000Y-107069639D01*
X178463000Y-107069639D01*
X178463000Y-107008744D01*
X178424493Y-106716257D01*
X178348139Y-106431298D01*
X178235243Y-106158743D01*
X178235237Y-106158734D01*
X178235236Y-106158730D01*
X178087740Y-105903259D01*
X178087735Y-105903252D01*
X177908153Y-105669216D01*
X177908134Y-105669195D01*
X177699554Y-105460615D01*
X177699533Y-105460596D01*
X177465497Y-105281014D01*
X177465490Y-105281009D01*
X177210019Y-105133513D01*
X177210011Y-105133509D01*
X177210007Y-105133507D01*
X176937452Y-105020611D01*
X176652493Y-104944257D01*
X176652491Y-104944256D01*
X176652485Y-104944255D01*
X176360008Y-104905750D01*
X176360006Y-104905750D01*
X176246209Y-104905750D01*
X176178088Y-104885748D01*
X176131595Y-104832092D01*
X176121491Y-104761818D01*
X176150985Y-104697238D01*
X176157114Y-104690654D01*
X176357439Y-104490330D01*
X176725115Y-104122654D01*
X176787427Y-104088629D01*
X176814210Y-104085750D01*
X179412924Y-104085750D01*
X179412925Y-104085750D01*
X179490305Y-104065016D01*
X179567687Y-104044282D01*
X179706441Y-103964172D01*
X180640421Y-103030192D01*
X180720532Y-102891437D01*
X180762000Y-102736674D01*
X180762000Y-102576454D01*
X180762000Y-99495239D01*
X180782002Y-99427118D01*
X180798905Y-99406144D01*
X182532655Y-97672394D01*
X182594967Y-97638368D01*
X182665782Y-97643433D01*
X182722618Y-97685980D01*
X182747429Y-97752500D01*
X182747750Y-97761489D01*
X182747750Y-109233261D01*
X182727748Y-109301382D01*
X182710845Y-109322356D01*
X178575577Y-113457623D01*
X178513265Y-113491649D01*
X178511064Y-113492107D01*
X178386415Y-113516901D01*
X178357919Y-113522570D01*
X178357917Y-113522571D01*
X178210783Y-113583516D01*
X178210782Y-113583517D01*
X178103187Y-113655408D01*
X178035436Y-113676622D01*
X177966970Y-113657839D01*
X177944093Y-113639737D01*
X174491512Y-110187156D01*
X174457486Y-110124844D01*
X174462551Y-110054029D01*
X174475836Y-110028069D01*
X174547733Y-109920468D01*
X174608680Y-109773331D01*
X174639750Y-109617130D01*
X174639750Y-109457870D01*
X174608680Y-109301669D01*
X174547733Y-109154532D01*
X174459253Y-109022111D01*
X174459251Y-109022109D01*
X174459246Y-109022103D01*
X174346646Y-108909503D01*
X174346640Y-108909498D01*
X174346639Y-108909497D01*
X174214218Y-108821017D01*
X174067081Y-108760070D01*
X173988980Y-108744535D01*
X173910882Y-108729000D01*
X173910880Y-108729000D01*
X173751620Y-108729000D01*
X173751617Y-108729000D01*
X173634469Y-108752302D01*
X173595419Y-108760070D01*
X173595417Y-108760071D01*
X173448282Y-108821017D01*
X173315859Y-108909498D01*
X173315853Y-108909503D01*
X173203253Y-109022103D01*
X173203248Y-109022109D01*
X173196980Y-109031490D01*
X173114767Y-109154532D01*
X173057872Y-109291888D01*
X173053821Y-109301667D01*
X173053820Y-109301670D01*
X173022750Y-109457867D01*
X173022750Y-109457870D01*
X173022750Y-109617130D01*
X173053820Y-109773331D01*
X173114767Y-109920468D01*
X173201515Y-110050297D01*
X173222730Y-110118049D01*
X173222750Y-110120298D01*
X173222750Y-110307333D01*
X173222750Y-110467553D01*
X173264218Y-110622316D01*
X173264219Y-110622318D01*
X173264220Y-110622320D01*
X173344325Y-110761066D01*
X173344333Y-110761076D01*
X177971173Y-115387916D01*
X177971178Y-115387920D01*
X177971180Y-115387922D01*
X178109935Y-115468032D01*
X178264696Y-115509500D01*
X178264697Y-115509500D01*
X178264698Y-115509500D01*
X184237174Y-115509500D01*
X184237175Y-115509500D01*
X184314555Y-115488766D01*
X184391937Y-115468032D01*
X184530691Y-115387922D01*
X192796905Y-107121706D01*
X192859217Y-107087681D01*
X192930032Y-107092746D01*
X192986868Y-107135293D01*
X193011679Y-107201813D01*
X193012000Y-107210802D01*
X193012000Y-107303758D01*
X193050505Y-107596235D01*
X193050506Y-107596241D01*
X193050507Y-107596243D01*
X193126861Y-107881202D01*
X193239757Y-108153757D01*
X193239758Y-108153758D01*
X193239763Y-108153769D01*
X193387259Y-108409240D01*
X193387264Y-108409247D01*
X193566846Y-108643283D01*
X193566865Y-108643304D01*
X193775445Y-108851884D01*
X193775466Y-108851903D01*
X194009502Y-109031485D01*
X194009509Y-109031490D01*
X194264980Y-109178986D01*
X194264984Y-109178987D01*
X194264993Y-109178993D01*
X194537548Y-109291889D01*
X194822507Y-109368243D01*
X194822513Y-109368243D01*
X194822514Y-109368244D01*
X194856074Y-109372662D01*
X195114994Y-109406750D01*
X195115001Y-109406750D01*
X195409999Y-109406750D01*
X195410006Y-109406750D01*
X195702493Y-109368243D01*
X195987452Y-109291889D01*
X196260007Y-109178993D01*
X196515494Y-109031488D01*
X196749542Y-108851896D01*
X196780421Y-108821017D01*
X196820155Y-108781284D01*
X196882467Y-108747258D01*
X196953282Y-108752323D01*
X197010118Y-108794870D01*
X197034929Y-108861390D01*
X197035250Y-108870379D01*
X197035250Y-113717201D01*
X197015248Y-113785322D01*
X197014016Y-113787202D01*
X196927266Y-113917033D01*
X196866321Y-114064167D01*
X196866320Y-114064170D01*
X196835250Y-114220367D01*
X196835250Y-114220370D01*
X196835250Y-114379630D01*
X196866320Y-114535831D01*
X196927267Y-114682968D01*
X197015747Y-114815389D01*
X197015748Y-114815390D01*
X197015753Y-114815396D01*
X197128353Y-114927996D01*
X197128359Y-114928001D01*
X197128361Y-114928003D01*
X197260782Y-115016483D01*
X197407919Y-115077430D01*
X197564120Y-115108500D01*
X197564121Y-115108500D01*
X197723379Y-115108500D01*
X197723380Y-115108500D01*
X197879581Y-115077430D01*
X198026718Y-115016483D01*
X198159139Y-114928003D01*
X198271753Y-114815389D01*
X198360233Y-114682968D01*
X198421180Y-114535831D01*
X198452250Y-114379630D01*
X198452250Y-114220370D01*
X198421180Y-114064169D01*
X198360233Y-113917032D01*
X198273483Y-113787201D01*
X198252270Y-113719449D01*
X198252250Y-113717201D01*
X198252250Y-108404054D01*
X198272252Y-108335933D01*
X198289145Y-108314969D01*
X199104353Y-107499760D01*
X199166662Y-107465738D01*
X199237477Y-107470802D01*
X199294313Y-107513349D01*
X199313277Y-107549919D01*
X199322627Y-107578695D01*
X199322628Y-107578698D01*
X199322630Y-107578702D01*
X199401268Y-107733038D01*
X199503087Y-107873180D01*
X199625569Y-107995662D01*
X199625572Y-107995664D01*
X199765712Y-108097482D01*
X199920055Y-108176123D01*
X200084799Y-108229652D01*
X200255889Y-108256750D01*
X200255892Y-108256750D01*
X200429108Y-108256750D01*
X200429111Y-108256750D01*
X200600201Y-108229652D01*
X200764945Y-108176123D01*
X200919288Y-108097482D01*
X201059428Y-107995664D01*
X201181914Y-107873178D01*
X201283732Y-107733038D01*
X201362373Y-107578695D01*
X201415902Y-107413951D01*
X201443000Y-107242861D01*
X201443000Y-107069639D01*
X201415902Y-106898549D01*
X201362373Y-106733805D01*
X201353435Y-106716264D01*
X201283731Y-106579461D01*
X201181912Y-106439319D01*
X201059430Y-106316837D01*
X200919288Y-106215018D01*
X200764952Y-106136380D01*
X200764948Y-106136378D01*
X200764945Y-106136377D01*
X200600201Y-106082848D01*
X200429111Y-106055750D01*
X200339000Y-106055750D01*
X200270879Y-106035748D01*
X200224386Y-105982092D01*
X200213000Y-105929750D01*
X200213000Y-96280697D01*
X200178819Y-96153131D01*
X200171532Y-96125935D01*
X200114660Y-96027430D01*
X200091423Y-95987182D01*
X200091419Y-95987177D01*
X200036400Y-95932158D01*
X199978128Y-95873886D01*
X194807121Y-90702879D01*
X194773095Y-90640567D01*
X194778160Y-90569752D01*
X194820707Y-90512916D01*
X194887227Y-90488105D01*
X194912659Y-90488861D01*
X195114994Y-90515500D01*
X195115001Y-90515500D01*
X195409999Y-90515500D01*
X195410006Y-90515500D01*
X195702493Y-90476993D01*
X195987452Y-90400639D01*
X196260007Y-90287743D01*
X196515494Y-90140238D01*
X196749542Y-89960646D01*
X196958146Y-89752042D01*
X197137738Y-89517994D01*
X197285243Y-89262507D01*
X197398139Y-88989952D01*
X197474493Y-88704993D01*
X197513000Y-88412506D01*
X197513000Y-88178389D01*
X199242000Y-88178389D01*
X199242000Y-88351611D01*
X199269098Y-88522701D01*
X199322627Y-88687445D01*
X199322628Y-88687448D01*
X199322630Y-88687452D01*
X199401268Y-88841788D01*
X199503087Y-88981930D01*
X199625569Y-89104412D01*
X199625572Y-89104414D01*
X199765712Y-89206232D01*
X199920055Y-89284873D01*
X200084799Y-89338402D01*
X200255889Y-89365500D01*
X200255892Y-89365500D01*
X200429108Y-89365500D01*
X200429111Y-89365500D01*
X200600201Y-89338402D01*
X200764945Y-89284873D01*
X200919288Y-89206232D01*
X201059428Y-89104414D01*
X201181914Y-88981928D01*
X201283732Y-88841788D01*
X201362373Y-88687445D01*
X201415902Y-88522701D01*
X201443000Y-88351611D01*
X201443000Y-88178389D01*
X201415902Y-88007299D01*
X201362373Y-87842555D01*
X201353435Y-87825014D01*
X201283731Y-87688211D01*
X201181912Y-87548069D01*
X201059430Y-87425587D01*
X200919288Y-87323768D01*
X200764952Y-87245130D01*
X200764948Y-87245128D01*
X200764945Y-87245127D01*
X200600201Y-87191598D01*
X200429111Y-87164500D01*
X200255889Y-87164500D01*
X200084799Y-87191598D01*
X200084796Y-87191598D01*
X200084795Y-87191599D01*
X200034996Y-87207780D01*
X199920055Y-87245127D01*
X199920053Y-87245127D01*
X199920047Y-87245130D01*
X199765711Y-87323768D01*
X199625569Y-87425587D01*
X199503087Y-87548069D01*
X199401268Y-87688211D01*
X199322630Y-87842547D01*
X199322627Y-87842553D01*
X199322627Y-87842555D01*
X199269098Y-88007299D01*
X199242000Y-88178389D01*
X197513000Y-88178389D01*
X197513000Y-88117494D01*
X197474493Y-87825007D01*
X197398139Y-87540048D01*
X197285243Y-87267493D01*
X197285237Y-87267484D01*
X197285236Y-87267480D01*
X197137740Y-87012009D01*
X197137735Y-87012002D01*
X196958153Y-86777966D01*
X196958134Y-86777945D01*
X196749554Y-86569365D01*
X196749533Y-86569346D01*
X196515497Y-86389764D01*
X196515490Y-86389759D01*
X196260019Y-86242263D01*
X196260011Y-86242259D01*
X196260007Y-86242257D01*
X195987452Y-86129361D01*
X195702493Y-86053007D01*
X195702491Y-86053006D01*
X195702485Y-86053005D01*
X195410008Y-86014500D01*
X195410006Y-86014500D01*
X195114994Y-86014500D01*
X195114991Y-86014500D01*
X194822514Y-86053005D01*
X194537548Y-86129361D01*
X194264991Y-86242258D01*
X194264980Y-86242263D01*
X194009509Y-86389759D01*
X194009502Y-86389764D01*
X193775466Y-86569346D01*
X193775445Y-86569365D01*
X193566865Y-86777945D01*
X193566846Y-86777966D01*
X193387264Y-87012002D01*
X193387259Y-87012009D01*
X193239763Y-87267480D01*
X193239758Y-87267491D01*
X193239757Y-87267493D01*
X193216447Y-87323768D01*
X193126861Y-87540048D01*
X193050505Y-87825014D01*
X193012000Y-88117491D01*
X193012000Y-88412508D01*
X193050505Y-88704985D01*
X193050506Y-88704991D01*
X193050507Y-88704993D01*
X193126861Y-88989952D01*
X193239757Y-89262507D01*
X193239758Y-89262508D01*
X193239763Y-89262519D01*
X193387259Y-89517990D01*
X193387263Y-89517996D01*
X193450569Y-89600497D01*
X193476170Y-89666717D01*
X193461906Y-89736266D01*
X193412304Y-89787062D01*
X193343115Y-89802978D01*
X193280607Y-89781967D01*
X193264221Y-89771018D01*
X193264218Y-89771017D01*
X193117081Y-89710070D01*
X193038980Y-89694535D01*
X192960882Y-89679000D01*
X192960880Y-89679000D01*
X192801620Y-89679000D01*
X192801617Y-89679000D01*
X192684469Y-89702302D01*
X192645419Y-89710070D01*
X192645417Y-89710071D01*
X192498282Y-89771017D01*
X192365859Y-89859498D01*
X192365853Y-89859503D01*
X192253253Y-89972103D01*
X192253248Y-89972109D01*
X192164767Y-90104532D01*
X192103821Y-90251667D01*
X192103820Y-90251670D01*
X192072750Y-90407867D01*
X192072750Y-90567132D01*
X192087357Y-90640567D01*
X192103820Y-90723331D01*
X192164767Y-90870468D01*
X192253247Y-91002889D01*
X192253248Y-91002890D01*
X192253253Y-91002896D01*
X192365853Y-91115496D01*
X192365859Y-91115501D01*
X192365861Y-91115503D01*
X192498282Y-91203983D01*
X192645419Y-91264930D01*
X192801620Y-91296000D01*
X192801621Y-91296000D01*
X192960879Y-91296000D01*
X192960880Y-91296000D01*
X193117081Y-91264930D01*
X193264218Y-91203983D01*
X193371813Y-91132090D01*
X193439561Y-91110877D01*
X193508028Y-91129660D01*
X193530906Y-91147762D01*
X196983487Y-94600343D01*
X197017513Y-94662655D01*
X197012448Y-94733470D01*
X196999159Y-94759436D01*
X196961083Y-94816420D01*
X196927266Y-94867033D01*
X196894656Y-94945761D01*
X196866320Y-95014169D01*
X196866129Y-95015128D01*
X196835250Y-95170367D01*
X196835250Y-95329632D01*
X196850737Y-95407491D01*
X196866320Y-95485831D01*
X196927267Y-95632968D01*
X197015747Y-95765389D01*
X197015748Y-95765390D01*
X197015753Y-95765396D01*
X197128353Y-95877996D01*
X197128359Y-95878001D01*
X197128361Y-95878003D01*
X197260782Y-95966483D01*
X197407919Y-96027430D01*
X197561064Y-96057892D01*
X197623973Y-96090800D01*
X197625577Y-96092376D01*
X198558095Y-97024894D01*
X198592121Y-97087206D01*
X198595000Y-97113989D01*
X198595000Y-100469530D01*
X198574998Y-100537651D01*
X198521342Y-100584144D01*
X198451068Y-100594248D01*
X198424694Y-100587013D01*
X198424658Y-100587124D01*
X198422270Y-100586348D01*
X198420786Y-100585941D01*
X198419955Y-100585596D01*
X198419950Y-100585594D01*
X198419944Y-100585592D01*
X198179163Y-100507357D01*
X198179159Y-100507356D01*
X198179158Y-100507356D01*
X197929092Y-100467750D01*
X197675908Y-100467750D01*
X197425842Y-100507356D01*
X197425836Y-100507357D01*
X197185054Y-100585592D01*
X197185048Y-100585595D01*
X196959458Y-100700539D01*
X196754629Y-100849357D01*
X196754626Y-100849359D01*
X196575609Y-101028376D01*
X196575607Y-101028379D01*
X196426789Y-101233208D01*
X196342338Y-101398953D01*
X196293590Y-101450568D01*
X196230071Y-101467750D01*
X190486739Y-101467750D01*
X190418618Y-101447748D01*
X190397644Y-101430845D01*
X186382905Y-97416106D01*
X186348879Y-97353794D01*
X186346000Y-97327011D01*
X186346000Y-88178389D01*
X189082000Y-88178389D01*
X189082000Y-88351611D01*
X189109098Y-88522701D01*
X189162627Y-88687445D01*
X189162628Y-88687448D01*
X189162630Y-88687452D01*
X189241268Y-88841788D01*
X189343087Y-88981930D01*
X189465569Y-89104412D01*
X189465572Y-89104414D01*
X189605712Y-89206232D01*
X189760055Y-89284873D01*
X189924799Y-89338402D01*
X190095889Y-89365500D01*
X190095892Y-89365500D01*
X190269108Y-89365500D01*
X190269111Y-89365500D01*
X190440201Y-89338402D01*
X190604945Y-89284873D01*
X190759288Y-89206232D01*
X190899428Y-89104414D01*
X191021914Y-88981928D01*
X191123732Y-88841788D01*
X191202373Y-88687445D01*
X191255902Y-88522701D01*
X191283000Y-88351611D01*
X191283000Y-88178389D01*
X191255902Y-88007299D01*
X191202373Y-87842555D01*
X191193435Y-87825014D01*
X191123731Y-87688211D01*
X191021912Y-87548069D01*
X190973735Y-87499892D01*
X190939709Y-87437580D01*
X190944774Y-87366765D01*
X190987321Y-87309929D01*
X191053841Y-87285118D01*
X191082541Y-87286348D01*
X191326580Y-87325000D01*
X191578420Y-87325000D01*
X191827173Y-87285601D01*
X192066682Y-87207780D01*
X192066688Y-87207777D01*
X192291085Y-87093441D01*
X192389921Y-87021632D01*
X192389921Y-87021630D01*
X191772525Y-86404234D01*
X191807758Y-86389641D01*
X191930597Y-86307563D01*
X192035063Y-86203097D01*
X192117141Y-86080258D01*
X192131734Y-86045025D01*
X192749130Y-86662421D01*
X192749132Y-86662421D01*
X192820941Y-86563585D01*
X192935277Y-86339188D01*
X192935280Y-86339182D01*
X193013101Y-86099673D01*
X193052500Y-85850919D01*
X193052500Y-85599080D01*
X193013101Y-85350326D01*
X192935280Y-85110817D01*
X192935277Y-85110811D01*
X192820940Y-84886413D01*
X192749132Y-84787577D01*
X192749130Y-84787577D01*
X192131734Y-85404973D01*
X192117141Y-85369742D01*
X192035063Y-85246903D01*
X191930597Y-85142437D01*
X191807758Y-85060359D01*
X191772525Y-85045764D01*
X192389921Y-84428368D01*
X192389921Y-84428366D01*
X192291086Y-84356559D01*
X192066688Y-84242222D01*
X192066682Y-84242219D01*
X191827171Y-84164398D01*
X191827175Y-84164398D01*
X191578420Y-84125000D01*
X191326580Y-84125000D01*
X191077826Y-84164398D01*
X190838317Y-84242219D01*
X190838311Y-84242222D01*
X190613918Y-84356556D01*
X190613911Y-84356561D01*
X190515077Y-84428365D01*
X190515077Y-84428368D01*
X191132474Y-85045765D01*
X191097242Y-85060359D01*
X190974403Y-85142437D01*
X190869937Y-85246903D01*
X190787859Y-85369742D01*
X190773265Y-85404974D01*
X190155868Y-84787577D01*
X190155865Y-84787577D01*
X190084061Y-84886411D01*
X190084056Y-84886418D01*
X189969722Y-85110811D01*
X189969719Y-85110817D01*
X189891898Y-85350326D01*
X189852500Y-85599080D01*
X189852500Y-85850919D01*
X189891898Y-86099673D01*
X189969719Y-86339182D01*
X189969722Y-86339188D01*
X190084059Y-86563586D01*
X190155866Y-86662421D01*
X190155868Y-86662421D01*
X190773264Y-86045024D01*
X190787859Y-86080258D01*
X190869937Y-86203097D01*
X190974403Y-86307563D01*
X191097242Y-86389641D01*
X191132473Y-86404234D01*
X190515076Y-87021631D01*
X190517027Y-87046415D01*
X190502430Y-87115895D01*
X190452587Y-87166454D01*
X190383323Y-87182040D01*
X190371705Y-87180749D01*
X190322065Y-87172887D01*
X190269111Y-87164500D01*
X190095889Y-87164500D01*
X189924799Y-87191598D01*
X189924796Y-87191598D01*
X189924795Y-87191599D01*
X189874996Y-87207780D01*
X189760055Y-87245127D01*
X189760053Y-87245127D01*
X189760047Y-87245130D01*
X189605711Y-87323768D01*
X189465569Y-87425587D01*
X189343087Y-87548069D01*
X189241268Y-87688211D01*
X189162630Y-87842547D01*
X189162627Y-87842553D01*
X189162627Y-87842555D01*
X189109098Y-88007299D01*
X189082000Y-88178389D01*
X186346000Y-88178389D01*
X186346000Y-80882390D01*
X186346000Y-80882389D01*
X186304532Y-80727628D01*
X186224421Y-80588872D01*
X186111128Y-80475579D01*
X182269415Y-76633866D01*
X176903633Y-71268083D01*
X176903623Y-71268075D01*
X176764877Y-71187970D01*
X176764875Y-71187969D01*
X176764873Y-71187968D01*
X176682136Y-71165799D01*
X176682135Y-71165798D01*
X176629409Y-71151670D01*
X176610111Y-71146500D01*
X176610110Y-71146500D01*
X173895664Y-71146500D01*
X173827543Y-71126498D01*
X173781050Y-71072842D01*
X173775094Y-71057089D01*
X173717491Y-70867196D01*
X173623845Y-70691996D01*
X173519566Y-70564932D01*
X173491813Y-70499587D01*
X173503795Y-70429609D01*
X173519564Y-70405069D01*
X173623845Y-70278004D01*
X173717491Y-70102804D01*
X173775090Y-69912922D01*
X173814006Y-69853543D01*
X173878847Y-69824627D01*
X173895665Y-69823500D01*
X176067011Y-69823500D01*
X176135132Y-69843502D01*
X176156106Y-69860405D01*
X189854328Y-83558627D01*
X189854329Y-83558628D01*
X189967622Y-83671921D01*
X190106378Y-83752032D01*
X190261139Y-83793500D01*
X196230071Y-83793500D01*
X196298192Y-83813502D01*
X196342337Y-83862296D01*
X196426787Y-84028038D01*
X196575605Y-84232868D01*
X196575607Y-84232870D01*
X196575609Y-84232873D01*
X196754626Y-84411890D01*
X196754629Y-84411892D01*
X196754632Y-84411895D01*
X196959462Y-84560713D01*
X197185050Y-84675656D01*
X197425842Y-84753894D01*
X197675908Y-84793500D01*
X197675911Y-84793500D01*
X197929089Y-84793500D01*
X197929092Y-84793500D01*
X198179158Y-84753894D01*
X198419950Y-84675656D01*
X198645538Y-84560713D01*
X198850368Y-84411895D01*
X199029395Y-84232868D01*
X199178213Y-84028038D01*
X199293156Y-83802450D01*
X199371394Y-83561658D01*
X199411000Y-83311592D01*
X199411000Y-83058408D01*
X199371394Y-82808342D01*
X199293156Y-82567550D01*
X199178213Y-82341962D01*
X199029395Y-82137132D01*
X199029392Y-82137129D01*
X199029390Y-82137126D01*
X198850373Y-81958109D01*
X198850370Y-81958107D01*
X198850368Y-81958105D01*
X198645538Y-81809287D01*
X198419950Y-81694344D01*
X198419947Y-81694343D01*
X198419945Y-81694342D01*
X198179163Y-81616107D01*
X198179159Y-81616106D01*
X198179158Y-81616106D01*
X197929092Y-81576500D01*
X197675908Y-81576500D01*
X197448168Y-81612570D01*
X197425836Y-81616107D01*
X197185054Y-81694342D01*
X197185048Y-81694345D01*
X196959458Y-81809289D01*
X196754629Y-81958107D01*
X196754626Y-81958109D01*
X196575609Y-82137126D01*
X196575607Y-82137129D01*
X196426789Y-82341958D01*
X196342338Y-82507703D01*
X196293590Y-82559318D01*
X196230071Y-82576500D01*
X190645489Y-82576500D01*
X190577368Y-82556498D01*
X190556394Y-82539595D01*
X176744883Y-68728083D01*
X176744873Y-68728075D01*
X176606127Y-68647970D01*
X176606124Y-68647969D01*
X176606123Y-68647968D01*
X176606121Y-68647967D01*
X176606120Y-68647967D01*
X176528741Y-68627234D01*
X176451361Y-68606500D01*
X176451359Y-68606500D01*
X173895664Y-68606500D01*
X173827543Y-68586498D01*
X173781050Y-68532842D01*
X173775094Y-68517089D01*
X173717491Y-68327196D01*
X173623845Y-68151996D01*
X173519566Y-68024932D01*
X173491813Y-67959587D01*
X173503795Y-67889609D01*
X173519564Y-67865069D01*
X173623845Y-67738004D01*
X173717491Y-67562804D01*
X173775158Y-67372701D01*
X173775709Y-67367114D01*
X173789749Y-67224553D01*
X173789750Y-67224547D01*
X173789749Y-66125454D01*
X173775158Y-65977299D01*
X173717491Y-65787196D01*
X173623845Y-65611996D01*
X173519566Y-65484932D01*
X173491813Y-65419587D01*
X173503795Y-65349609D01*
X173519564Y-65325069D01*
X173623845Y-65198004D01*
X173717491Y-65022804D01*
X173775090Y-64832922D01*
X173814006Y-64773543D01*
X173878847Y-64744627D01*
X173895665Y-64743500D01*
X175974511Y-64743500D01*
X176042632Y-64763502D01*
X176063606Y-64780405D01*
X185470116Y-74186916D01*
X185470120Y-74186919D01*
X185470123Y-74186922D01*
X185608878Y-74267032D01*
X185763639Y-74308500D01*
X185763640Y-74308500D01*
X185763641Y-74308500D01*
X188305110Y-74308500D01*
X188305111Y-74308500D01*
X188382491Y-74287766D01*
X188459873Y-74267032D01*
X188598627Y-74186922D01*
X190969504Y-71816042D01*
X190969513Y-71816036D01*
X191093165Y-71692384D01*
X191093171Y-71692378D01*
X191137613Y-71615402D01*
X191173282Y-71553623D01*
X191214750Y-71398860D01*
X191214750Y-71238640D01*
X191214750Y-71226350D01*
X193404000Y-71226350D01*
X193404000Y-73323649D01*
X193410509Y-73384196D01*
X193410511Y-73384204D01*
X193461610Y-73521202D01*
X193461612Y-73521207D01*
X193549238Y-73638261D01*
X193666292Y-73725887D01*
X193666294Y-73725888D01*
X193666296Y-73725889D01*
X193718727Y-73745445D01*
X193803295Y-73776988D01*
X193803303Y-73776990D01*
X193863850Y-73783499D01*
X193863855Y-73783499D01*
X193863862Y-73783500D01*
X193863868Y-73783500D01*
X197161132Y-73783500D01*
X197161138Y-73783500D01*
X197161145Y-73783499D01*
X197161149Y-73783499D01*
X197221696Y-73776990D01*
X197221699Y-73776989D01*
X197221701Y-73776989D01*
X197358704Y-73725889D01*
X197475761Y-73638261D01*
X197563389Y-73521204D01*
X197614489Y-73384201D01*
X197621000Y-73323638D01*
X197621000Y-71226362D01*
X197620999Y-71226350D01*
X197614490Y-71165803D01*
X197614488Y-71165795D01*
X197573937Y-71057076D01*
X197563389Y-71028796D01*
X197563388Y-71028794D01*
X197563387Y-71028792D01*
X197475761Y-70911738D01*
X197358707Y-70824112D01*
X197358702Y-70824110D01*
X197221704Y-70773011D01*
X197221696Y-70773009D01*
X197161149Y-70766500D01*
X197161138Y-70766500D01*
X193863862Y-70766500D01*
X193863850Y-70766500D01*
X193803303Y-70773009D01*
X193803295Y-70773011D01*
X193666297Y-70824110D01*
X193666292Y-70824112D01*
X193549238Y-70911738D01*
X193461612Y-71028792D01*
X193461610Y-71028797D01*
X193410511Y-71165795D01*
X193410509Y-71165803D01*
X193404000Y-71226350D01*
X191214750Y-71226350D01*
X191214750Y-69056950D01*
X201012500Y-69056950D01*
X201012500Y-69293049D01*
X201049436Y-69526254D01*
X201122395Y-69750798D01*
X201229587Y-69961174D01*
X201287459Y-70040828D01*
X201287460Y-70040828D01*
X202028341Y-69299947D01*
X202046575Y-69367993D01*
X202112401Y-69482007D01*
X202205493Y-69575099D01*
X202319507Y-69640925D01*
X202387551Y-69659157D01*
X201646670Y-70400038D01*
X201726329Y-70457914D01*
X201936701Y-70565104D01*
X202161245Y-70638063D01*
X202394450Y-70675000D01*
X202630550Y-70675000D01*
X202863754Y-70638063D01*
X203088298Y-70565104D01*
X203298672Y-70457913D01*
X203298683Y-70457907D01*
X203378328Y-70400040D01*
X203378328Y-70400037D01*
X202637448Y-69659157D01*
X202705493Y-69640925D01*
X202819507Y-69575099D01*
X202912599Y-69482007D01*
X202978425Y-69367993D01*
X202996657Y-69299948D01*
X203737537Y-70040828D01*
X203737540Y-70040828D01*
X203795407Y-69961183D01*
X203795413Y-69961172D01*
X203902604Y-69750798D01*
X203975563Y-69526254D01*
X204012500Y-69293049D01*
X204012500Y-69056950D01*
X203975563Y-68823745D01*
X203902604Y-68599201D01*
X203795414Y-68388829D01*
X203737538Y-68309170D01*
X202996657Y-69050051D01*
X202978425Y-68982007D01*
X202912599Y-68867993D01*
X202819507Y-68774901D01*
X202705493Y-68709075D01*
X202637447Y-68690841D01*
X203378328Y-67949960D01*
X203378328Y-67949959D01*
X203298674Y-67892087D01*
X203088298Y-67784895D01*
X202863754Y-67711936D01*
X202630550Y-67675000D01*
X202394450Y-67675000D01*
X202161245Y-67711936D01*
X201936701Y-67784895D01*
X201726330Y-67892084D01*
X201726329Y-67892085D01*
X201646670Y-67949960D01*
X201646670Y-67949961D01*
X202387551Y-68690842D01*
X202319507Y-68709075D01*
X202205493Y-68774901D01*
X202112401Y-68867993D01*
X202046575Y-68982007D01*
X202028342Y-69050051D01*
X201287461Y-68309170D01*
X201287460Y-68309170D01*
X201229585Y-68388829D01*
X201229584Y-68388830D01*
X201122395Y-68599201D01*
X201049436Y-68823745D01*
X201012500Y-69056950D01*
X191214750Y-69056950D01*
X191214750Y-66476139D01*
X191173282Y-66321378D01*
X191173282Y-66321377D01*
X191133226Y-66252000D01*
X191093171Y-66182622D01*
X191093165Y-66182615D01*
X190975489Y-66064939D01*
X190975466Y-66064918D01*
X189557905Y-64647356D01*
X189523879Y-64585044D01*
X189521000Y-64558261D01*
X189521000Y-63126367D01*
X189520999Y-63126350D01*
X189514490Y-63065803D01*
X189514488Y-63065795D01*
X189466970Y-62938397D01*
X189463389Y-62928796D01*
X189463388Y-62928794D01*
X189463387Y-62928792D01*
X189375761Y-62811738D01*
X189258707Y-62724112D01*
X189258702Y-62724110D01*
X189121704Y-62673011D01*
X189121696Y-62673009D01*
X189061149Y-62666500D01*
X189061138Y-62666500D01*
X186963862Y-62666500D01*
X186963850Y-62666500D01*
X186903303Y-62673009D01*
X186903295Y-62673011D01*
X186766297Y-62724110D01*
X186766292Y-62724112D01*
X186649238Y-62811738D01*
X186561612Y-62928792D01*
X186561610Y-62928797D01*
X186510511Y-63065795D01*
X186510509Y-63065803D01*
X186504000Y-63126350D01*
X186504000Y-65223649D01*
X186510509Y-65284196D01*
X186510511Y-65284204D01*
X186561610Y-65421202D01*
X186561612Y-65421207D01*
X186649238Y-65538261D01*
X186766817Y-65626280D01*
X186809364Y-65683116D01*
X186814428Y-65753932D01*
X186793244Y-65801209D01*
X186729587Y-65888825D01*
X186622395Y-66099201D01*
X186549436Y-66323745D01*
X186515976Y-66534999D01*
X186485563Y-66599152D01*
X186425295Y-66636679D01*
X186354305Y-66635665D01*
X186302432Y-66604383D01*
X180806133Y-61108083D01*
X180806123Y-61108075D01*
X180667377Y-61027970D01*
X180667374Y-61027969D01*
X180667373Y-61027968D01*
X180667371Y-61027967D01*
X180667370Y-61027967D01*
X180589991Y-61007234D01*
X180512611Y-60986500D01*
X180512609Y-60986500D01*
X173895664Y-60986500D01*
X173827543Y-60966498D01*
X173781050Y-60912842D01*
X173775094Y-60897089D01*
X173717491Y-60707196D01*
X173623845Y-60531996D01*
X173519566Y-60404932D01*
X173491813Y-60339587D01*
X173503795Y-60269609D01*
X173519564Y-60245069D01*
X173623845Y-60118004D01*
X173717491Y-59942804D01*
X173775090Y-59752922D01*
X173814006Y-59693543D01*
X173878847Y-59664627D01*
X173895665Y-59663500D01*
X179869511Y-59663500D01*
X179937632Y-59683502D01*
X179958601Y-59700400D01*
X180157622Y-59899421D01*
X180157623Y-59899422D01*
X180157625Y-59899423D01*
X180255157Y-59955733D01*
X180296377Y-59979532D01*
X180367668Y-59998634D01*
X180451139Y-60021000D01*
X180451140Y-60021000D01*
X180611360Y-60021000D01*
X187920761Y-60021000D01*
X187988882Y-60041002D01*
X188009856Y-60057905D01*
X192613865Y-64661915D01*
X192613870Y-64661919D01*
X192613872Y-64661921D01*
X192752627Y-64742032D01*
X192752633Y-64742033D01*
X192752634Y-64742034D01*
X192797527Y-64754063D01*
X192797528Y-64754063D01*
X192907389Y-64783500D01*
X192907390Y-64783500D01*
X193067610Y-64783500D01*
X201052304Y-64783500D01*
X201120425Y-64803502D01*
X201164570Y-64852296D01*
X201222315Y-64965627D01*
X201361880Y-65157722D01*
X201361882Y-65157724D01*
X201361884Y-65157727D01*
X201529772Y-65325615D01*
X201529775Y-65325617D01*
X201529778Y-65325620D01*
X201721873Y-65465185D01*
X201933437Y-65572982D01*
X202159259Y-65646356D01*
X202393778Y-65683500D01*
X202393781Y-65683500D01*
X202631219Y-65683500D01*
X202631222Y-65683500D01*
X202865741Y-65646356D01*
X203091563Y-65572982D01*
X203303127Y-65465185D01*
X203495222Y-65325620D01*
X203663120Y-65157722D01*
X203802685Y-64965627D01*
X203910482Y-64754063D01*
X203983856Y-64528241D01*
X204021000Y-64293722D01*
X204021000Y-64056278D01*
X203983856Y-63821759D01*
X203910482Y-63595937D01*
X203802685Y-63384373D01*
X203663120Y-63192278D01*
X203663117Y-63192275D01*
X203663115Y-63192272D01*
X203495227Y-63024384D01*
X203495224Y-63024382D01*
X203495222Y-63024380D01*
X203343590Y-62914213D01*
X203303130Y-62884817D01*
X203303129Y-62884816D01*
X203303127Y-62884815D01*
X203091563Y-62777018D01*
X203091560Y-62777017D01*
X203091558Y-62777016D01*
X202865746Y-62703645D01*
X202865742Y-62703644D01*
X202865741Y-62703644D01*
X202631222Y-62666500D01*
X202393778Y-62666500D01*
X202190102Y-62698759D01*
X202159253Y-62703645D01*
X201933441Y-62777016D01*
X201933435Y-62777019D01*
X201721869Y-62884817D01*
X201529775Y-63024382D01*
X201529772Y-63024384D01*
X201361884Y-63192272D01*
X201361882Y-63192275D01*
X201222317Y-63384369D01*
X201222315Y-63384373D01*
X201187429Y-63452842D01*
X201164571Y-63497703D01*
X201115823Y-63549318D01*
X201052304Y-63566500D01*
X193291739Y-63566500D01*
X193223618Y-63546498D01*
X193202644Y-63529595D01*
X189785133Y-60112083D01*
X189699400Y-60026350D01*
X193404000Y-60026350D01*
X193404000Y-62123649D01*
X193410509Y-62184196D01*
X193410511Y-62184204D01*
X193461610Y-62321202D01*
X193461612Y-62321207D01*
X193549238Y-62438261D01*
X193666292Y-62525887D01*
X193666294Y-62525888D01*
X193666296Y-62525889D01*
X193725375Y-62547924D01*
X193803295Y-62576988D01*
X193803303Y-62576990D01*
X193863850Y-62583499D01*
X193863855Y-62583499D01*
X193863862Y-62583500D01*
X193863868Y-62583500D01*
X197161132Y-62583500D01*
X197161138Y-62583500D01*
X197161145Y-62583499D01*
X197161149Y-62583499D01*
X197221696Y-62576990D01*
X197221699Y-62576989D01*
X197221701Y-62576989D01*
X197358704Y-62525889D01*
X197416258Y-62482805D01*
X197475761Y-62438261D01*
X197563387Y-62321207D01*
X197563387Y-62321206D01*
X197563389Y-62321204D01*
X197614489Y-62184201D01*
X197614494Y-62184162D01*
X197620999Y-62123649D01*
X197621000Y-62123632D01*
X197621000Y-60026367D01*
X197620999Y-60026350D01*
X197614490Y-59965803D01*
X197614488Y-59965795D01*
X197563389Y-59828797D01*
X197563387Y-59828792D01*
X197475761Y-59711738D01*
X197358707Y-59624112D01*
X197358702Y-59624110D01*
X197221704Y-59573011D01*
X197221696Y-59573009D01*
X197161149Y-59566500D01*
X197161138Y-59566500D01*
X193863862Y-59566500D01*
X193863850Y-59566500D01*
X193803303Y-59573009D01*
X193803295Y-59573011D01*
X193666297Y-59624110D01*
X193666292Y-59624112D01*
X193549238Y-59711738D01*
X193461612Y-59828792D01*
X193461610Y-59828797D01*
X193410511Y-59965795D01*
X193410509Y-59965803D01*
X193404000Y-60026350D01*
X189699400Y-60026350D01*
X188598633Y-58925583D01*
X188598623Y-58925575D01*
X188459877Y-58845470D01*
X188459874Y-58845469D01*
X188459873Y-58845468D01*
X188459871Y-58845467D01*
X188459870Y-58845467D01*
X188382491Y-58824734D01*
X188305111Y-58804000D01*
X188305109Y-58804000D01*
X180835489Y-58804000D01*
X180767368Y-58783998D01*
X180746398Y-58767099D01*
X180547377Y-58568078D01*
X180547375Y-58568077D01*
X180547373Y-58568075D01*
X180408627Y-58487970D01*
X180408624Y-58487969D01*
X180408623Y-58487968D01*
X180408621Y-58487967D01*
X180408620Y-58487967D01*
X180326020Y-58465835D01*
X180253861Y-58446500D01*
X180253860Y-58446500D01*
X173895664Y-58446500D01*
X173827543Y-58426498D01*
X173781050Y-58372842D01*
X173775094Y-58357089D01*
X173717491Y-58167196D01*
X173623845Y-57991996D01*
X173497818Y-57838432D01*
X173344254Y-57712405D01*
X173169054Y-57618759D01*
X172978951Y-57561092D01*
X172978950Y-57561091D01*
X172978944Y-57561090D01*
X172850153Y-57548406D01*
X172830797Y-57546500D01*
X172830795Y-57546500D01*
X170731715Y-57546500D01*
X170731695Y-57546501D01*
X170583555Y-57561090D01*
X170393445Y-57618759D01*
X170218245Y-57712405D01*
X170064682Y-57838432D01*
X169938655Y-57991995D01*
X169845009Y-58167195D01*
X169787340Y-58357305D01*
X169772750Y-58505446D01*
X169772750Y-59604534D01*
X169772751Y-59604554D01*
X169787340Y-59752694D01*
X169787341Y-59752700D01*
X169787342Y-59752701D01*
X169805785Y-59813500D01*
X169845009Y-59942804D01*
X169938655Y-60118004D01*
X170042932Y-60245066D01*
X170070686Y-60310414D01*
X170058704Y-60380392D01*
X170042932Y-60404934D01*
X169938655Y-60531995D01*
X169845009Y-60707195D01*
X169787340Y-60897305D01*
X169772750Y-61045446D01*
X169772750Y-62144534D01*
X169772751Y-62144554D01*
X169787340Y-62292694D01*
X169845009Y-62482804D01*
X169938655Y-62658004D01*
X170042932Y-62785066D01*
X170070686Y-62850414D01*
X170058704Y-62920392D01*
X170042932Y-62944934D01*
X169938655Y-63071995D01*
X169845009Y-63247195D01*
X169787340Y-63437305D01*
X169772750Y-63585446D01*
X169772750Y-64684534D01*
X169772751Y-64684554D01*
X169787340Y-64832694D01*
X169787341Y-64832700D01*
X169787342Y-64832701D01*
X169843097Y-65016500D01*
X169845009Y-65022804D01*
X169938655Y-65198004D01*
X170042932Y-65325066D01*
X170070686Y-65390414D01*
X170058704Y-65460392D01*
X170042932Y-65484934D01*
X169938655Y-65611995D01*
X169845009Y-65787195D01*
X169787340Y-65977305D01*
X169772750Y-66125446D01*
X169772750Y-67224534D01*
X169772751Y-67224554D01*
X169787340Y-67372694D01*
X169787341Y-67372700D01*
X169787342Y-67372701D01*
X169802566Y-67422887D01*
X169845009Y-67562804D01*
X169938655Y-67738004D01*
X170042932Y-67865066D01*
X170070686Y-67930414D01*
X170058704Y-68000392D01*
X170042932Y-68024934D01*
X169938655Y-68151995D01*
X169845009Y-68327195D01*
X169787340Y-68517305D01*
X169772750Y-68665446D01*
X169772750Y-69764534D01*
X169772751Y-69764554D01*
X169787340Y-69912694D01*
X169787341Y-69912700D01*
X169787342Y-69912701D01*
X169802046Y-69961174D01*
X169845009Y-70102804D01*
X169938655Y-70278004D01*
X170042932Y-70405066D01*
X170070686Y-70470414D01*
X170058704Y-70540392D01*
X170042932Y-70564934D01*
X169938655Y-70691995D01*
X169845009Y-70867195D01*
X169787340Y-71057305D01*
X169772750Y-71205446D01*
X169772750Y-72304534D01*
X169772751Y-72304554D01*
X169787340Y-72452694D01*
X169845009Y-72642804D01*
X169938655Y-72818004D01*
X170042932Y-72945066D01*
X170070686Y-73010414D01*
X170058704Y-73080392D01*
X170042932Y-73104934D01*
X169938655Y-73231995D01*
X169845009Y-73407195D01*
X169787340Y-73597305D01*
X169772750Y-73745446D01*
X169772750Y-74844534D01*
X169772751Y-74844554D01*
X169787340Y-74992694D01*
X169845009Y-75182804D01*
X169866404Y-75222831D01*
X169880876Y-75292337D01*
X169855473Y-75358633D01*
X169844377Y-75371322D01*
X168581833Y-76633866D01*
X168581825Y-76633876D01*
X168501717Y-76772627D01*
X168501718Y-76772628D01*
X168460250Y-76927390D01*
X168460250Y-77657954D01*
X168440248Y-77726075D01*
X168386592Y-77772568D01*
X168316318Y-77782672D01*
X168251738Y-77753178D01*
X168245155Y-77747049D01*
X160246700Y-69748594D01*
X160212674Y-69686282D01*
X160217739Y-69615467D01*
X160260286Y-69558631D01*
X160326806Y-69533820D01*
X160335795Y-69533499D01*
X162731794Y-69533499D01*
X162835676Y-69522887D01*
X163003988Y-69467115D01*
X163154902Y-69374030D01*
X163280280Y-69248652D01*
X163373365Y-69097738D01*
X163429137Y-68929426D01*
X163439750Y-68825545D01*
X163439749Y-65724456D01*
X163439352Y-65720574D01*
X163429137Y-65620574D01*
X163406501Y-65552262D01*
X163373365Y-65452262D01*
X163280280Y-65301348D01*
X163280279Y-65301347D01*
X163280274Y-65301341D01*
X163154908Y-65175975D01*
X163154902Y-65175970D01*
X163003988Y-65082885D01*
X162919832Y-65054999D01*
X162835677Y-65027113D01*
X162835670Y-65027112D01*
X162731803Y-65016500D01*
X159630705Y-65016500D01*
X159526824Y-65027112D01*
X159358511Y-65082885D01*
X159207597Y-65175970D01*
X159207591Y-65175975D01*
X159082225Y-65301341D01*
X159082220Y-65301347D01*
X158989135Y-65452262D01*
X158933363Y-65620572D01*
X158933362Y-65620579D01*
X158922750Y-65724446D01*
X158922750Y-68120454D01*
X158902748Y-68188575D01*
X158849092Y-68235068D01*
X158778818Y-68245172D01*
X158714238Y-68215678D01*
X158707655Y-68209549D01*
X156826654Y-66328548D01*
X156792628Y-66266236D01*
X156789749Y-66239453D01*
X156789749Y-66125465D01*
X156789749Y-66125454D01*
X156775158Y-65977299D01*
X156717491Y-65787196D01*
X156623845Y-65611996D01*
X156519566Y-65484932D01*
X156491813Y-65419587D01*
X156503795Y-65349609D01*
X156519564Y-65325069D01*
X156623845Y-65198004D01*
X156717491Y-65022804D01*
X156775158Y-64832701D01*
X156789750Y-64684547D01*
X156789749Y-63585454D01*
X156776689Y-63452842D01*
X156775159Y-63437305D01*
X156775158Y-63437303D01*
X156775158Y-63437299D01*
X156717491Y-63247196D01*
X156623845Y-63071996D01*
X156514201Y-62938395D01*
X156486448Y-62873049D01*
X156498430Y-62803070D01*
X156513950Y-62778836D01*
X156620527Y-62648131D01*
X156714690Y-62467865D01*
X156770640Y-62272329D01*
X156770640Y-62272326D01*
X156781249Y-62153003D01*
X156781250Y-62152997D01*
X156781250Y-61037003D01*
X156781249Y-61036996D01*
X156770640Y-60917673D01*
X156770640Y-60917670D01*
X156714690Y-60722134D01*
X156649436Y-60597211D01*
X156649435Y-60597210D01*
X156621548Y-60543824D01*
X160852750Y-60543824D01*
X160852750Y-60726176D01*
X160879818Y-60897075D01*
X160881277Y-60906288D01*
X160937624Y-61079706D01*
X160937625Y-61079709D01*
X160937626Y-61079710D01*
X161020412Y-61242186D01*
X161127596Y-61389712D01*
X161127598Y-61389714D01*
X161127600Y-61389717D01*
X161256532Y-61518649D01*
X161256535Y-61518651D01*
X161256538Y-61518654D01*
X161404064Y-61625838D01*
X161566540Y-61708624D01*
X161739967Y-61764974D01*
X161838321Y-61780551D01*
X161902473Y-61810964D01*
X161940000Y-61871232D01*
X161938986Y-61942221D01*
X161899753Y-62001393D01*
X161838321Y-62029448D01*
X161739967Y-62045026D01*
X161739961Y-62045027D01*
X161566543Y-62101374D01*
X161404060Y-62184164D01*
X161256535Y-62291348D01*
X161256532Y-62291350D01*
X161127600Y-62420282D01*
X161127598Y-62420285D01*
X161020414Y-62567810D01*
X160937624Y-62730293D01*
X160881277Y-62903711D01*
X160881276Y-62903716D01*
X160881276Y-62903717D01*
X160852750Y-63083824D01*
X160852750Y-63266176D01*
X160879818Y-63437075D01*
X160881277Y-63446288D01*
X160937624Y-63619706D01*
X160937625Y-63619709D01*
X160937626Y-63619710D01*
X161020412Y-63782186D01*
X161127596Y-63929712D01*
X161127598Y-63929714D01*
X161127600Y-63929717D01*
X161256532Y-64058649D01*
X161256535Y-64058651D01*
X161256538Y-64058654D01*
X161404064Y-64165838D01*
X161566540Y-64248624D01*
X161739967Y-64304974D01*
X161920074Y-64333500D01*
X161920077Y-64333500D01*
X162102423Y-64333500D01*
X162102426Y-64333500D01*
X162282533Y-64304974D01*
X162455960Y-64248624D01*
X162618436Y-64165838D01*
X162765962Y-64058654D01*
X162894904Y-63929712D01*
X163002088Y-63782186D01*
X163084874Y-63619710D01*
X163141224Y-63446283D01*
X163156801Y-63347926D01*
X163187213Y-63283776D01*
X163247482Y-63246249D01*
X163318471Y-63247263D01*
X163377643Y-63286496D01*
X163405697Y-63347926D01*
X163419818Y-63437075D01*
X163421277Y-63446288D01*
X163477624Y-63619706D01*
X163477625Y-63619709D01*
X163477626Y-63619710D01*
X163560412Y-63782186D01*
X163667596Y-63929712D01*
X163667598Y-63929714D01*
X163667600Y-63929717D01*
X163796532Y-64058649D01*
X163796535Y-64058651D01*
X163796538Y-64058654D01*
X163944064Y-64165838D01*
X164106540Y-64248624D01*
X164279967Y-64304974D01*
X164460074Y-64333500D01*
X164460077Y-64333500D01*
X164642423Y-64333500D01*
X164642426Y-64333500D01*
X164822533Y-64304974D01*
X164995960Y-64248624D01*
X165158436Y-64165838D01*
X165305962Y-64058654D01*
X165434904Y-63929712D01*
X165438730Y-63924446D01*
X166122750Y-63924446D01*
X166122750Y-64825544D01*
X166133362Y-64929425D01*
X166189135Y-65097738D01*
X166286073Y-65254898D01*
X166284447Y-65255900D01*
X166307357Y-65312695D01*
X166294103Y-65382444D01*
X166285997Y-65395055D01*
X166286073Y-65395102D01*
X166282221Y-65401346D01*
X166282220Y-65401348D01*
X166197771Y-65538261D01*
X166189135Y-65552262D01*
X166133363Y-65720572D01*
X166133362Y-65720579D01*
X166122750Y-65824446D01*
X166122750Y-66725544D01*
X166133362Y-66829425D01*
X166189135Y-66997738D01*
X166282220Y-67148652D01*
X166282225Y-67148658D01*
X166407591Y-67274024D01*
X166407597Y-67274029D01*
X166407598Y-67274030D01*
X166558512Y-67367115D01*
X166726824Y-67422887D01*
X166830705Y-67433500D01*
X168731794Y-67433499D01*
X168835676Y-67422887D01*
X169003988Y-67367115D01*
X169154902Y-67274030D01*
X169280280Y-67148652D01*
X169373365Y-66997738D01*
X169429137Y-66829426D01*
X169439750Y-66725545D01*
X169439749Y-65824456D01*
X169429137Y-65720574D01*
X169373365Y-65552262D01*
X169280280Y-65401348D01*
X169280278Y-65401346D01*
X169276427Y-65395102D01*
X169278055Y-65394097D01*
X169255144Y-65337324D01*
X169268387Y-65267574D01*
X169276503Y-65254944D01*
X169276427Y-65254898D01*
X169280280Y-65248652D01*
X169373365Y-65097738D01*
X169429137Y-64929426D01*
X169439750Y-64825545D01*
X169439749Y-63924456D01*
X169429137Y-63820574D01*
X169373365Y-63652262D01*
X169280280Y-63501348D01*
X169280279Y-63501347D01*
X169280274Y-63501341D01*
X169154908Y-63375975D01*
X169154902Y-63375970D01*
X169003988Y-63282885D01*
X168893426Y-63246249D01*
X168835677Y-63227113D01*
X168835670Y-63227112D01*
X168731803Y-63216500D01*
X166830705Y-63216500D01*
X166726824Y-63227112D01*
X166558511Y-63282885D01*
X166407597Y-63375970D01*
X166407591Y-63375975D01*
X166282225Y-63501341D01*
X166282220Y-63501347D01*
X166189135Y-63652262D01*
X166133363Y-63820572D01*
X166133362Y-63820579D01*
X166122750Y-63924446D01*
X165438730Y-63924446D01*
X165542088Y-63782186D01*
X165624874Y-63619710D01*
X165681224Y-63446283D01*
X165709750Y-63266176D01*
X165709750Y-63083824D01*
X165681224Y-62903717D01*
X165624874Y-62730290D01*
X165542088Y-62567814D01*
X165434904Y-62420288D01*
X165434901Y-62420285D01*
X165434899Y-62420282D01*
X165305967Y-62291350D01*
X165305964Y-62291348D01*
X165305962Y-62291346D01*
X165186604Y-62204627D01*
X165158439Y-62184164D01*
X165158438Y-62184163D01*
X165158436Y-62184162D01*
X164995960Y-62101376D01*
X164995959Y-62101375D01*
X164995956Y-62101374D01*
X164822538Y-62045027D01*
X164822534Y-62045026D01*
X164822533Y-62045026D01*
X164724176Y-62029448D01*
X164660026Y-61999037D01*
X164622499Y-61938768D01*
X164623513Y-61867779D01*
X164662746Y-61808607D01*
X164724176Y-61780552D01*
X164822533Y-61764974D01*
X164995960Y-61708624D01*
X165158436Y-61625838D01*
X165305962Y-61518654D01*
X165434904Y-61389712D01*
X165542088Y-61242186D01*
X165624874Y-61079710D01*
X165681224Y-60906283D01*
X165709750Y-60726176D01*
X165709750Y-60543824D01*
X165681224Y-60363717D01*
X165624874Y-60190290D01*
X165542088Y-60027814D01*
X165434904Y-59880288D01*
X165434901Y-59880285D01*
X165434899Y-59880282D01*
X165305967Y-59751350D01*
X165305964Y-59751348D01*
X165305962Y-59751346D01*
X165186604Y-59664627D01*
X165158439Y-59644164D01*
X165158438Y-59644163D01*
X165158436Y-59644162D01*
X164995960Y-59561376D01*
X164995959Y-59561375D01*
X164995956Y-59561374D01*
X164822538Y-59505027D01*
X164822534Y-59505026D01*
X164822533Y-59505026D01*
X164642426Y-59476500D01*
X164460074Y-59476500D01*
X164279967Y-59505026D01*
X164279961Y-59505027D01*
X164106543Y-59561374D01*
X163944060Y-59644164D01*
X163796535Y-59751348D01*
X163796532Y-59751350D01*
X163667600Y-59880282D01*
X163667598Y-59880285D01*
X163560414Y-60027810D01*
X163477624Y-60190293D01*
X163421277Y-60363711D01*
X163421276Y-60363716D01*
X163421276Y-60363717D01*
X163405698Y-60462071D01*
X163375286Y-60526223D01*
X163315018Y-60563750D01*
X163244029Y-60562736D01*
X163184857Y-60523503D01*
X163156801Y-60462071D01*
X163141224Y-60363717D01*
X163084874Y-60190290D01*
X163002088Y-60027814D01*
X162894904Y-59880288D01*
X162894901Y-59880285D01*
X162894899Y-59880282D01*
X162765967Y-59751350D01*
X162765964Y-59751348D01*
X162765962Y-59751346D01*
X162646604Y-59664627D01*
X162618439Y-59644164D01*
X162618438Y-59644163D01*
X162618436Y-59644162D01*
X162455960Y-59561376D01*
X162455959Y-59561375D01*
X162455956Y-59561374D01*
X162282538Y-59505027D01*
X162282534Y-59505026D01*
X162282533Y-59505026D01*
X162102426Y-59476500D01*
X161920074Y-59476500D01*
X161739967Y-59505026D01*
X161739961Y-59505027D01*
X161566543Y-59561374D01*
X161404060Y-59644164D01*
X161256535Y-59751348D01*
X161256532Y-59751350D01*
X161127600Y-59880282D01*
X161127598Y-59880285D01*
X161020414Y-60027810D01*
X160937624Y-60190293D01*
X160881277Y-60363711D01*
X160881276Y-60363716D01*
X160881276Y-60363717D01*
X160852750Y-60543824D01*
X156621548Y-60543824D01*
X156620524Y-60541863D01*
X156513950Y-60411162D01*
X156486403Y-60345728D01*
X156498605Y-60275788D01*
X156514198Y-60251608D01*
X156623845Y-60118004D01*
X156717491Y-59942804D01*
X156775158Y-59752701D01*
X156775292Y-59751348D01*
X156781974Y-59683502D01*
X156789750Y-59604547D01*
X156789749Y-58505454D01*
X156775158Y-58357299D01*
X156717491Y-58167196D01*
X156623845Y-57991996D01*
X156600725Y-57963824D01*
X160852750Y-57963824D01*
X160852750Y-58146176D01*
X160876559Y-58296500D01*
X160881277Y-58326288D01*
X160937624Y-58499706D01*
X160937625Y-58499709D01*
X160937626Y-58499710D01*
X161020412Y-58662186D01*
X161127596Y-58809712D01*
X161127598Y-58809714D01*
X161127600Y-58809717D01*
X161256532Y-58938649D01*
X161256535Y-58938651D01*
X161256538Y-58938654D01*
X161404064Y-59045838D01*
X161566540Y-59128624D01*
X161739967Y-59184974D01*
X161920074Y-59213500D01*
X161920077Y-59213500D01*
X162102423Y-59213500D01*
X162102426Y-59213500D01*
X162282533Y-59184974D01*
X162455960Y-59128624D01*
X162618436Y-59045838D01*
X162765962Y-58938654D01*
X162894904Y-58809712D01*
X163002088Y-58662186D01*
X163084874Y-58499710D01*
X163141224Y-58326283D01*
X163156801Y-58227926D01*
X163187213Y-58163776D01*
X163247482Y-58126249D01*
X163318471Y-58127263D01*
X163377643Y-58166496D01*
X163405697Y-58227926D01*
X163416559Y-58296500D01*
X163421277Y-58326288D01*
X163477624Y-58499706D01*
X163477625Y-58499709D01*
X163477626Y-58499710D01*
X163560412Y-58662186D01*
X163667596Y-58809712D01*
X163667598Y-58809714D01*
X163667600Y-58809717D01*
X163796532Y-58938649D01*
X163796535Y-58938651D01*
X163796538Y-58938654D01*
X163944064Y-59045838D01*
X164106540Y-59128624D01*
X164279967Y-59184974D01*
X164460074Y-59213500D01*
X164460077Y-59213500D01*
X164642423Y-59213500D01*
X164642426Y-59213500D01*
X164822533Y-59184974D01*
X164995960Y-59128624D01*
X165158436Y-59045838D01*
X165305962Y-58938654D01*
X165434904Y-58809712D01*
X165542088Y-58662186D01*
X165624874Y-58499710D01*
X165681224Y-58326283D01*
X165709750Y-58146176D01*
X165709750Y-57963824D01*
X165681224Y-57783717D01*
X165624874Y-57610290D01*
X165542088Y-57447814D01*
X165434904Y-57300288D01*
X165434901Y-57300285D01*
X165434899Y-57300282D01*
X165305967Y-57171350D01*
X165305964Y-57171348D01*
X165305962Y-57171346D01*
X165158436Y-57064162D01*
X164995960Y-56981376D01*
X164995959Y-56981375D01*
X164995956Y-56981374D01*
X164822538Y-56925027D01*
X164822534Y-56925026D01*
X164822533Y-56925026D01*
X164642426Y-56896500D01*
X164460074Y-56896500D01*
X164279967Y-56925026D01*
X164279961Y-56925027D01*
X164106543Y-56981374D01*
X163944060Y-57064164D01*
X163796535Y-57171348D01*
X163796532Y-57171350D01*
X163667600Y-57300282D01*
X163667598Y-57300285D01*
X163560414Y-57447810D01*
X163477624Y-57610293D01*
X163421277Y-57783711D01*
X163421276Y-57783716D01*
X163421276Y-57783717D01*
X163405698Y-57882071D01*
X163375286Y-57946223D01*
X163315018Y-57983750D01*
X163244029Y-57982736D01*
X163184857Y-57943503D01*
X163156801Y-57882071D01*
X163141224Y-57783717D01*
X163084874Y-57610290D01*
X163002088Y-57447814D01*
X162894904Y-57300288D01*
X162894901Y-57300285D01*
X162894899Y-57300282D01*
X162765967Y-57171350D01*
X162765964Y-57171348D01*
X162765962Y-57171346D01*
X162618436Y-57064162D01*
X162455960Y-56981376D01*
X162455959Y-56981375D01*
X162455956Y-56981374D01*
X162282538Y-56925027D01*
X162282534Y-56925026D01*
X162282533Y-56925026D01*
X162102426Y-56896500D01*
X161920074Y-56896500D01*
X161739967Y-56925026D01*
X161739961Y-56925027D01*
X161566543Y-56981374D01*
X161404060Y-57064164D01*
X161256535Y-57171348D01*
X161256532Y-57171350D01*
X161127600Y-57300282D01*
X161127598Y-57300285D01*
X161020414Y-57447810D01*
X160937624Y-57610293D01*
X160881277Y-57783711D01*
X160881276Y-57783716D01*
X160881276Y-57783717D01*
X160852750Y-57963824D01*
X156600725Y-57963824D01*
X156497818Y-57838432D01*
X156344254Y-57712405D01*
X156169054Y-57618759D01*
X155978951Y-57561092D01*
X155978950Y-57561091D01*
X155978944Y-57561090D01*
X155850153Y-57548406D01*
X155830797Y-57546500D01*
X155830795Y-57546500D01*
X153731715Y-57546500D01*
X153731695Y-57546501D01*
X153583555Y-57561090D01*
X153393445Y-57618759D01*
X153218245Y-57712405D01*
X153064682Y-57838432D01*
X152938655Y-57991995D01*
X152845009Y-58167195D01*
X152832912Y-58207075D01*
X152793997Y-58266457D01*
X152729155Y-58295373D01*
X152712337Y-58296500D01*
X150420288Y-58296500D01*
X150347024Y-58311073D01*
X150347024Y-58311074D01*
X150273753Y-58325649D01*
X150273751Y-58325649D01*
X150273750Y-58325650D01*
X150273749Y-58325650D01*
X150216576Y-58349332D01*
X150135716Y-58382826D01*
X150135715Y-58382827D01*
X150011482Y-58465836D01*
X149699201Y-58778116D01*
X149658329Y-58805427D01*
X149635780Y-58814768D01*
X149503359Y-58903248D01*
X149503353Y-58903253D01*
X149390753Y-59015853D01*
X149390748Y-59015859D01*
X149390747Y-59015861D01*
X149302267Y-59148282D01*
X149275253Y-59213500D01*
X149241321Y-59295417D01*
X149241320Y-59295420D01*
X149210250Y-59451617D01*
X149210250Y-59610882D01*
X149220717Y-59663500D01*
X149241320Y-59767081D01*
X149302267Y-59914218D01*
X149377202Y-60026367D01*
X149390748Y-60046640D01*
X149390753Y-60046646D01*
X149503353Y-60159246D01*
X149503359Y-60159251D01*
X149503361Y-60159253D01*
X149635782Y-60247733D01*
X149782919Y-60308680D01*
X149939120Y-60339750D01*
X149939121Y-60339750D01*
X150098379Y-60339750D01*
X150098380Y-60339750D01*
X150254581Y-60308680D01*
X150401718Y-60247733D01*
X150534139Y-60159253D01*
X150646753Y-60046639D01*
X150735233Y-59914218D01*
X150744570Y-59891675D01*
X150749332Y-59884557D01*
X150750469Y-59879364D01*
X150771993Y-59850687D01*
X150772389Y-59850290D01*
X150834745Y-59816345D01*
X150861371Y-59813500D01*
X152712337Y-59813500D01*
X152780458Y-59833502D01*
X152826951Y-59887158D01*
X152832912Y-59902925D01*
X152845009Y-59942804D01*
X152938655Y-60118004D01*
X153048297Y-60251603D01*
X153076051Y-60316951D01*
X153064069Y-60386929D01*
X153048550Y-60411162D01*
X152941971Y-60541868D01*
X152847809Y-60722134D01*
X152791859Y-60917670D01*
X152791859Y-60917673D01*
X152781250Y-61036996D01*
X152781250Y-62153003D01*
X152791859Y-62272326D01*
X152791859Y-62272329D01*
X152847809Y-62467865D01*
X152941971Y-62648131D01*
X153048550Y-62778838D01*
X153076096Y-62844273D01*
X153063893Y-62914213D01*
X153048297Y-62938397D01*
X152938655Y-63071995D01*
X152845009Y-63247195D01*
X152787340Y-63437305D01*
X152772750Y-63585446D01*
X152772750Y-64684534D01*
X152772751Y-64684554D01*
X152787340Y-64832694D01*
X152787341Y-64832700D01*
X152787342Y-64832701D01*
X152843097Y-65016500D01*
X152845009Y-65022804D01*
X152938655Y-65198004D01*
X153042932Y-65325066D01*
X153070686Y-65390414D01*
X153058704Y-65460392D01*
X153042932Y-65484934D01*
X152938655Y-65611995D01*
X152845009Y-65787195D01*
X152787340Y-65977305D01*
X152772750Y-66125446D01*
X152772750Y-67224534D01*
X152772751Y-67224554D01*
X152787340Y-67372694D01*
X152787341Y-67372700D01*
X152787342Y-67372701D01*
X152802566Y-67422887D01*
X152845009Y-67562804D01*
X152938655Y-67738004D01*
X153042932Y-67865066D01*
X153070686Y-67930414D01*
X153058704Y-68000392D01*
X153042932Y-68024934D01*
X152938655Y-68151995D01*
X152845009Y-68327195D01*
X152787340Y-68517305D01*
X152772750Y-68665446D01*
X152772750Y-69764534D01*
X152772751Y-69764554D01*
X152787340Y-69912694D01*
X152787341Y-69912700D01*
X152787342Y-69912701D01*
X152802046Y-69961174D01*
X152845009Y-70102804D01*
X152938655Y-70278004D01*
X153042932Y-70405066D01*
X153070686Y-70470414D01*
X153058704Y-70540392D01*
X153042932Y-70564934D01*
X152938655Y-70691995D01*
X152845009Y-70867194D01*
X152831497Y-70911738D01*
X152795990Y-71028792D01*
X152787410Y-71057076D01*
X152748494Y-71116457D01*
X152683653Y-71145373D01*
X152666835Y-71146500D01*
X150724889Y-71146500D01*
X150652879Y-71165795D01*
X150570130Y-71187967D01*
X150570123Y-71187970D01*
X150503628Y-71226362D01*
X150431375Y-71268076D01*
X150431365Y-71268084D01*
X147150583Y-74548866D01*
X147150575Y-74548876D01*
X147070467Y-74687627D01*
X147070468Y-74687628D01*
X147029000Y-74842389D01*
X145756750Y-74842389D01*
X145756750Y-56499000D01*
X145776752Y-56430879D01*
X145830408Y-56384386D01*
X145882750Y-56373000D01*
X206542250Y-56373000D01*
X206610371Y-56393002D01*
G37*
%TD.AperFunction*%
%TD*%
M02*
